<?xml version="1.0" encoding="UTF-8"?>
<svg version="1.1" xmlns="http://www.w3.org/2000/svg" width="512" height="512">
<path d="M0 0 C0.96164062 -0.0515625 1.92328125 -0.103125 2.9140625 -0.15625 C11.98674094 1.56407729 20.08524602 8.96294061 27.5 14.1875 C29.54011177 15.61624648 31.58047712 17.04463094 33.62109375 18.47265625 C35.10005127 19.5093042 35.10005127 19.5093042 36.60888672 20.56689453 C40.24522976 23.10816233 43.90109067 25.62004979 47.5625 28.125 C54.39541323 32.80681092 61.17931626 37.55707849 67.96044922 42.31347656 C73.64755002 46.2993451 79.35698632 50.25038878 85.0859375 54.17578125 C91.0349669 58.25612945 96.95562756 62.37678128 102.875 66.5 C109.36242299 71.01852456 115.8541962 75.52976343 122.375 80 C129.9048675 85.16198464 137.39538802 90.37995897 144.88671875 95.59765625 C150.3711033 99.41571524 155.86327642 103.22152283 161.375 107 C168.9048675 112.16198464 176.39538802 117.37995897 183.88671875 122.59765625 C189.3711033 126.41571524 194.86327642 130.22152283 200.375 134 C207.89347103 139.15417196 215.37452448 144.36162706 222.8515625 149.57568359 C227.2729476 152.65665211 231.69835484 155.72984388 236.15625 158.7578125 C236.87619141 159.24765625 237.59613281 159.7375 238.33789062 160.2421875 C239.63617679 161.12347859 240.9367292 162.0014468 242.24023438 162.875 C254.04596947 170.89398987 254.04596947 170.89398987 256.375 176.5 C257.68440606 184.94740725 256.50273235 190.8283758 251.51171875 197.72265625 C250.80660156 198.63917969 250.10148437 199.55570313 249.375 200.5 C248.61832031 201.57121094 247.86164063 202.64242187 247.08203125 203.74609375 C239.86487676 213.85371185 239.86487676 213.85371185 233.5 216.1875 C228.2451255 216.96027566 224.45118489 216.71780544 219.63671875 214.48046875 C218.83580811 214.11203857 218.03489746 213.7436084 217.2097168 213.36401367 C216.30153198 212.9363269 216.30153198 212.9363269 215.375 212.5 C215.37440291 213.05156366 215.37380582 213.60312731 215.37319064 214.17140502 C215.33725789 246.89769825 215.28055947 279.62388241 215.19707905 312.3500878 C215.18706219 316.28392861 215.17721796 320.21776982 215.16748047 324.15161133 C215.16456841 325.3262938 215.16456841 325.3262938 215.16159752 326.52470724 C215.13061846 339.18707926 215.11360832 351.84943319 215.10180578 364.51183596 C215.08937296 377.5150029 215.06182362 390.51807519 215.02038693 403.52118236 C214.99531235 411.53788963 214.98187829 419.55443984 214.98357043 427.57118688 C214.98360384 433.72956571 214.96255478 439.88771247 214.93383217 446.04602051 C214.92534075 448.56419832 214.92357804 451.08240961 214.92919731 453.60059547 C214.9625479 470.84876737 214.74707164 486.82560546 202.6328125 500.4609375 C194.85939934 507.84729274 185.01220278 512.61656626 174.2912817 512.63422108 C173.03607879 512.63867892 171.78087587 512.64313676 170.48763651 512.64772969 C169.09209437 512.6476404 167.69655224 512.64745055 166.30101013 512.64717102 C164.82046842 512.65047058 163.3399276 512.65419634 161.85938793 512.6583125 C157.78509415 512.66833031 153.71081509 512.67204895 149.63651073 512.67470181 C145.24436688 512.67860554 140.85223468 512.68818386 136.46009827 512.69691467 C125.84983152 512.71667765 115.23956383 512.72674531 104.62928328 512.73564246 C99.63228566 512.74002583 94.6352891 512.74539254 89.63829231 512.75063133 C73.02616184 512.76764382 56.41403203 512.78213772 39.80189419 512.78938007 C35.49089494 512.79128996 31.17989571 512.79321029 26.86889648 512.79516602 C25.26168564 512.79589163 25.26168564 512.79589163 23.62200589 512.7966319 C6.26703485 512.80493118 -11.08786723 512.83026632 -28.44280816 512.86274669 C-46.26215484 512.89582421 -64.08146649 512.91382948 -81.90084404 512.91702431 C-91.90517224 512.91918882 -101.90939992 512.92792875 -111.9136982 512.95348549 C-120.43438643 512.97520197 -128.95494971 512.98323825 -137.47566248 512.97351871 C-141.82134753 512.9689767 -146.16677483 512.9708544 -150.51242447 512.99028015 C-154.49571425 513.00793191 -158.47855862 513.00689801 -162.46185326 512.99138286 C-163.89799532 512.98900982 -165.33416839 512.99331456 -166.77026314 513.00521151 C-180.82930431 513.1144062 -190.95956084 509.78319825 -201.625 500.5 C-209.17115538 492.8421679 -213.72791484 481.49739162 -213.7636652 470.77739239 C-213.76913964 469.85130411 -213.77461409 468.92521583 -213.78025442 467.97106427 C-213.78123253 466.96230907 -213.78221064 465.95355388 -213.78321838 464.91423035 C-213.78815636 463.83598395 -213.79309434 462.75773756 -213.79818195 461.64681703 C-213.81356037 458.02781122 -213.82191856 454.40882315 -213.83032227 450.78979492 C-213.83990051 448.19795577 -213.84991056 445.60611817 -213.86032104 443.01428223 C-213.88206396 437.43113632 -213.90021642 431.84798802 -213.91592598 426.26482201 C-213.93864452 418.1925153 -213.96678459 410.12023465 -213.99624526 402.04795007 C-214.04389685 388.95100491 -214.08716762 375.8540491 -214.12768555 362.75708008 C-214.16705285 350.03506643 -214.20848204 337.31306225 -214.25268555 324.59106445 C-214.25540982 323.80679823 -214.25813409 323.02253201 -214.26094092 322.21450015 C-214.2746206 318.28004247 -214.28834083 314.34558492 -214.30208123 310.41112745 C-214.41600778 277.77410451 -214.52282558 245.13706188 -214.625 212.5 C-215.23263184 212.78367432 -215.84026367 213.06734863 -216.46630859 213.35961914 C-217.6702124 213.91057251 -217.6702124 213.91057251 -218.8984375 214.47265625 C-220.08832275 215.02191772 -220.08832275 215.02191772 -221.30224609 215.58227539 C-225.99936026 217.43811438 -229.5548835 216.85055541 -234.25 215.3125 C-240.88985766 211.74665052 -244.68217761 205.87051176 -248.875 199.8125 C-249.41640625 199.04099609 -249.9578125 198.26949219 -250.515625 197.47460938 C-254.07462352 192.38079275 -255.79952864 189.61120573 -255.9375 183.25 C-255.97488281 182.13109375 -256.01226562 181.0121875 -256.05078125 179.859375 C-255.35116683 174.3394814 -252.79833496 171.49023978 -248.62109375 167.96484375 C-247.44289038 167.11125086 -246.25611812 166.2694013 -245.0625 165.4375 C-244.40830078 164.96981201 -243.75410156 164.50212402 -243.08007812 164.02026367 C-236.37507641 159.25465385 -229.56828835 154.63235621 -222.765625 150.0078125 C-217.27631438 146.27126632 -211.8234299 142.48332557 -206.375 138.6875 C-205.42302734 138.02427734 -204.47105469 137.36105469 -203.49023438 136.67773438 C-201.53830443 135.31753638 -199.58648265 133.95718316 -197.63476562 132.59667969 C-194.52367703 130.42941583 -191.41057304 128.26507549 -188.296875 126.1015625 C-187.26336914 125.38331299 -186.22986328 124.66506348 -185.16503906 123.92504883 C-183.19322534 122.55481881 -181.22123105 121.18484857 -179.24902344 119.81518555 C-177.90372559 118.87993042 -177.90372559 118.87993042 -176.53125 117.92578125 C-175.68949219 117.34135254 -174.84773438 116.75692383 -173.98046875 116.15478516 C-171.83042845 114.64431945 -169.71105297 113.09874987 -167.59375 111.54296875 C-164.625 109.5 -164.625 109.5 -162.625 109.5 C-162.63499275 108.38365929 -162.63499275 108.38365929 -162.64518738 107.24476624 C-162.7055353 100.19856683 -162.75109396 93.15245837 -162.78043652 86.10607243 C-162.79602948 82.48425752 -162.81714953 78.86265786 -162.85131836 75.2409668 C-162.88414149 71.7396225 -162.9019008 68.238484 -162.90963173 64.7369976 C-162.91779505 62.76462383 -162.94117711 60.79233174 -162.96488953 58.82008362 C-162.96667063 49.22581614 -161.88108604 41.10875329 -155.625 33.5 C-148.70758085 27.2018258 -141.99695093 25.19390506 -132.63671875 25.1640625 C-131.89347855 25.1574057 -131.15023834 25.1507489 -130.38447571 25.14389038 C-128.82055106 25.13382349 -127.25658397 25.1290715 -125.69262695 25.12939453 C-123.32885168 25.12503019 -120.9669605 25.08867511 -118.60351562 25.05078125 C-108.3751965 24.97371285 -99.70984253 25.66744438 -91.75 32.6875 C-86.13164843 38.88888805 -84.49464246 45.39186291 -83.625 53.5 C-72.36832613 45.83215064 -61.15697026 38.10201401 -49.98193359 30.31567383 C-43.1471635 25.55478008 -36.2967994 20.81777675 -29.42578125 16.109375 C-26.68780734 14.23281036 -23.95751597 12.3455323 -21.23046875 10.453125 C-20.13786743 9.69672729 -20.13786743 9.69672729 -19.02319336 8.92504883 C-17.63066921 7.96077452 -16.23947009 6.99458277 -14.84985352 6.02612305 C-9.69627208 2.46325963 -6.3199141 0.20010282 0 0 Z M-2.8515625 19.59765625 C-3.64304688 20.24605469 -4.43453125 20.89445312 -5.25 21.5625 C-6.21679688 22.31660156 -7.18359375 23.07070313 -8.1796875 23.84765625 C-8.72334961 24.27320801 -9.26701172 24.69875977 -9.82714844 25.13720703 C-13.24648356 27.72910391 -16.82175145 30.09696996 -20.375 32.5 C-27.71841792 37.49777824 -35.02520558 42.54575819 -42.3125 47.625 C-48.73719107 52.10223956 -55.16591341 56.57250233 -61.625 61 C-68.14582643 65.47020374 -74.63755512 69.98150726 -81.125 74.5 C-88.23261777 79.45044195 -95.35050876 84.38450464 -102.49487305 89.28173828 C-108.32832348 93.28524635 -114.13278453 97.32998174 -119.9375 101.375 C-127.73718393 106.80928959 -135.56110306 112.20530126 -143.41455078 117.56152344 C-150.73743979 122.56244575 -158.01375757 127.62941965 -165.2890625 132.69921875 C-171.34253159 136.91633346 -177.41041464 141.11106731 -183.49560547 145.28222656 C-189.32879402 149.28559854 -195.13299056 153.33019851 -200.9375 157.375 C-208.33500445 162.52822144 -215.74624765 167.66012181 -223.1875 172.75 C-223.95425049 173.2744873 -224.72100098 173.79897461 -225.51098633 174.33935547 C-229.53236634 177.08511466 -233.56753607 179.80784384 -237.625 182.5 C-234.62435973 188.13098876 -231.43713639 193.38084541 -227.625 198.5 C-220.95318728 194.38798481 -214.50428978 190.04383225 -208.15161133 185.46191406 C-203.86779406 182.37623501 -199.5446588 179.35612655 -195.1875 176.375 C-188.47736882 171.78223619 -181.79682622 167.14822948 -175.125 162.5 C-168.01962106 157.55096264 -160.90368251 152.61871946 -153.76171875 147.72265625 C-147.86433165 143.67495879 -141.99445335 139.58806284 -136.125 135.5 C-129.01954817 130.55106662 -121.90368322 125.61871995 -114.76171875 120.72265625 C-108.86433165 116.67495879 -102.99445335 112.58806284 -97.125 108.5 C-90.01954817 103.55106662 -82.90368322 98.61871995 -75.76171875 93.72265625 C-69.86433091 89.67495828 -63.99452158 85.58796594 -58.125 81.5 C-49.7174952 75.64605227 -41.30010035 69.80803331 -32.84472656 64.0234375 C-30.20188049 62.20960562 -27.56611644 60.38564585 -24.9296875 58.5625 C-22.93241752 57.1873172 -20.93502232 55.81231624 -18.9375 54.4375 C-17.99189209 53.78128662 -17.04628418 53.12507324 -16.07202148 52.44897461 C-15.17813721 51.83546143 -14.28425293 51.22194824 -13.36328125 50.58984375 C-12.56962158 50.04191162 -11.77596191 49.49397949 -10.95825195 48.92944336 C-6.0180753 45.90289378 -1.41468874 44.55036851 4.375 45.5 C11.92592652 48.08701308 18.26148553 53.11483345 24.63671875 57.78125 C28.31230757 60.47047098 32.05135556 63.05732321 35.8125 65.625 C42.52313848 70.21701546 49.20318119 74.85177568 55.875 79.5 C62.36237852 84.01858781 68.85419668 88.52976376 75.375 93 C82.9048675 98.16198464 90.39538802 103.37995897 97.88671875 108.59765625 C103.3711033 112.41571524 108.86327642 116.22152283 114.375 120 C121.9048675 125.16198464 129.39538802 130.37995897 136.88671875 135.59765625 C142.3711033 139.41571524 147.86327642 143.22152283 153.375 147 C160.9048675 152.16198464 168.39538802 157.37995897 175.88671875 162.59765625 C181.98063786 166.84005436 188.08482914 171.06641841 194.21411133 175.25756836 C198.26088173 178.02980637 202.28189627 180.8364679 206.29296875 183.66015625 C207.32873047 184.3871875 208.36449219 185.11421875 209.43164062 185.86328125 C211.48144452 187.30313102 213.5284374 188.74699295 215.57226562 190.1953125 C216.51134766 190.85402344 217.45042969 191.51273438 218.41796875 192.19140625 C219.25352295 192.78123291 220.08907715 193.37105957 220.94995117 193.97875977 C223.69232256 195.79975057 223.69232256 195.79975057 228.375 197.5 C233.325 190.57 233.325 190.57 238.375 183.5 C235.32119406 180.44619406 233.08518114 178.51043108 229.5625 176.25 C223.33737069 172.17356893 217.22670554 167.94623534 211.125 163.6875 C204.55492083 159.10540945 197.98266106 154.52776143 191.375 150 C183.84501467 144.83818913 176.35461028 139.62003984 168.86328125 134.40234375 C163.3788967 130.58428476 157.88672358 126.77847717 152.375 123 C144.8451325 117.83801536 137.35461198 112.62004103 129.86328125 107.40234375 C124.3788967 103.58428476 118.88672358 99.77847717 113.375 96 C105.8451325 90.83801536 98.35461198 85.62004103 90.86328125 80.40234375 C85.3788967 76.58428476 79.88672358 72.77847717 74.375 69 C66.8451325 63.83801536 59.35461198 58.62004103 51.86328125 53.40234375 C45.76936214 49.15994564 39.66517086 44.93358159 33.53588867 40.74243164 C29.48911827 37.97019363 25.46810373 35.1635321 21.45703125 32.33984375 C19.90338867 31.24929687 19.90338867 31.24929687 18.31835938 30.13671875 C16.26855548 28.69686898 14.2215626 27.25300705 12.17773438 25.8046875 C10.76911133 24.81662109 10.76911133 24.81662109 9.33203125 23.80859375 C8.49647705 23.21876709 7.66092285 22.62894043 6.80004883 22.02124023 C2.17827711 18.86152299 2.17827711 18.86152299 -2.8515625 19.59765625 Z M-142.625 46.5 C-145.53922468 51.0759784 -144.87669365 56.59669792 -144.8203125 61.83203125 C-144.8174826 62.82377853 -144.81465271 63.81552582 -144.81173706 64.83732605 C-144.80056804 67.99584159 -144.77546927 71.15407057 -144.75 74.3125 C-144.73996597 76.45767819 -144.73084086 78.60286083 -144.72265625 80.74804688 C-144.70063945 85.99879521 -144.66719443 91.24937713 -144.625 96.5 C-138.61706747 92.72485922 -132.67518524 88.92547985 -126.9375 84.75 C-120.92164234 80.39804845 -114.82583279 76.17308664 -108.69067383 71.99121094 C-105.51114525 69.9292636 -105.51114525 69.9292636 -102.625 67.5 C-102.26441579 64.42807556 -102.25349149 61.34022235 -102.1875 58.25 C-102.11885742 56.96029297 -102.11885742 56.96029297 -102.04882812 55.64453125 C-101.97144267 51.2773002 -102.21857679 49.09088836 -104.7421875 45.421875 C-110.01541335 41.85806294 -117.1198086 42.86867761 -123.1875 43 C-124.50169922 42.99742188 -125.81589844 42.99484375 -127.16992188 42.9921875 C-135.45946691 42.8414267 -135.45946691 42.8414267 -142.625 46.5 Z M-4.265625 65.78125 C-4.99458984 66.28527344 -5.72355469 66.78929688 -6.47460938 67.30859375 C-7.26673828 67.86675781 -8.05886719 68.42492187 -8.875 69 C-10.12506836 69.86818359 -10.12506836 69.86818359 -11.40039062 70.75390625 C-14.14639697 72.66293796 -16.88561472 74.58148242 -19.625 76.5 C-21.52550723 77.82368432 -23.42655401 79.1465943 -25.328125 80.46875 C-28.24402193 82.49617107 -31.15955949 84.52408518 -34.07324219 86.5546875 C-40.83092566 91.26274325 -47.61758592 95.92606625 -54.421875 100.56640625 C-60.68176759 104.84119868 -66.90655603 109.16518522 -73.125 113.5 C-80.10383067 118.3648727 -87.09670158 123.20685741 -94.125 128 C-102.20909837 133.51349125 -110.24512019 139.09425329 -118.27368164 144.68823242 C-126.98322851 150.75505434 -135.72643817 156.77152759 -144.48144531 162.77246094 C-153.09013052 168.67491716 -161.67771264 174.60728854 -170.25 180.5625 C-171.16724854 181.19889404 -172.08449707 181.83528809 -173.02954102 182.4909668 C-174.84476542 183.75341739 -176.64421566 185.03891078 -178.4255991 186.34867954 C-181.625 188.5 -181.625 188.5 -185.19986629 190.16774654 C-189.41899091 192.26647871 -192.94439912 194.54801495 -195.625 198.5 C-198.31565981 206.78783479 -197.42232923 216.05287145 -197.26196289 224.64477539 C-197.26292569 227.33132906 -197.26942366 230.01734483 -197.28276062 232.70381165 C-197.30256774 239.23038582 -197.24846773 245.7543342 -197.16970844 252.28038055 C-197.0810844 259.88682642 -197.06959126 267.49281258 -197.06192081 275.09969967 C-197.04593319 288.67551947 -196.9653392 302.2501667 -196.84594727 315.82543945 C-196.7303082 328.9853009 -196.65239562 342.14459355 -196.62036133 355.30493164 C-196.61837941 356.11565257 -196.61639749 356.92637349 -196.61435551 357.76166172 C-196.6064773 361.02085906 -196.5986906 364.2800566 -196.59106684 367.53925455 C-196.55894069 380.8580911 -196.49820108 394.17681938 -196.43227077 407.49552608 C-196.4172937 410.52641345 -196.40333283 413.55730289 -196.39022374 416.5881989 C-196.35519143 424.55367164 -196.31056714 432.51890763 -196.23868889 440.48414237 C-196.2090308 443.7764035 -196.18522678 447.06850084 -196.17103195 450.36087036 C-196.15455153 453.93515782 -196.11968986 457.50880672 -196.07997131 461.082901 C-196.07916016 462.11598406 -196.07834901 463.14906713 -196.07751328 464.21345574 C-195.92888141 474.04499003 -193.65160736 482.38065686 -186.625 489.5 C-178.92155057 495.00762353 -171.22075347 495.21416328 -162.05053711 495.13491821 C-160.58884431 495.14068775 -159.12715877 495.14863444 -157.66548824 495.15855443 C-153.67103102 495.17933721 -149.67717466 495.16915211 -145.68271589 495.15362334 C-141.36632786 495.14227839 -137.05004085 495.15978808 -132.7336731 495.17352295 C-124.28667642 495.19572643 -115.8399022 495.19096708 -107.39289689 495.17645974 C-100.52630685 495.16515611 -93.65977905 495.16364147 -86.79318237 495.16907883 C-85.81494662 495.16984499 -84.83671087 495.17061116 -83.82883161 495.17140054 C-81.84140625 495.17299921 -79.8539809 495.17462027 -77.86655557 495.1762635 C-59.24158122 495.19051253 -40.61673002 495.17414153 -21.99177587 495.14726166 C-6.01952069 495.12492366 9.95255278 495.12880403 25.92480469 495.15185547 C44.4842843 495.1786284 63.04365605 495.18913931 81.60315228 495.17379415 C83.58316229 495.17220145 85.56317232 495.17062959 87.54318237 495.16907883 C89.00438943 495.16792176 89.00438943 495.16792176 90.49511582 495.16674132 C97.3514354 495.1624288 104.2076864 495.16970121 111.06399536 495.18147659 C119.42249217 495.19551671 127.78075428 495.19166988 136.13922429 495.16507287 C140.40182486 495.151955 144.66403447 495.14674746 148.92663193 495.16331863 C152.83265521 495.17827366 156.73792704 495.16993963 160.64388263 495.14343087 C162.0528969 495.13786927 163.46197532 495.14063408 164.87094796 495.15280981 C173.38918967 495.22074475 180.29214249 494.56392792 187.375 489.5 C195.33944577 481.43044105 196.82083116 472.06115207 196.83670044 461.08963013 C196.8498472 459.97080818 196.86299396 458.85198623 196.87653911 457.69926059 C196.91646618 453.96632031 196.93518495 450.23359205 196.95361328 446.50048828 C196.97733399 443.81751957 197.00212908 441.13457719 197.0279541 438.45162964 C197.10121931 430.4167931 197.14534558 422.3819029 197.1841343 414.34683591 C197.19528734 412.07543626 197.20720542 409.80404194 197.2193923 407.53264761 C197.29507825 393.40690763 197.3611915 379.2811578 197.39857674 365.15526009 C197.40736466 361.89012749 197.41624987 358.62499518 197.42529297 355.35986328 C197.42753112 354.54840976 197.42976927 353.73695624 197.43207525 352.90091322 C197.47005627 339.748941 197.5697719 326.59818348 197.69469847 313.44677939 C197.8220777 299.9258351 197.89267357 286.40551272 197.90833843 272.88397014 C197.91856392 265.29902349 197.95361812 257.71598022 198.05264664 250.13162613 C198.13682289 243.67461269 198.169577 237.21989303 198.13606025 230.76237358 C198.1205376 227.46982271 198.13708579 224.18305542 198.20345688 220.89099884 C198.97688367 208.09081685 198.97688367 208.09081685 194.89667654 196.38213301 C191.43343499 192.89342598 187.54477966 190.51209089 183.14199519 188.37948585 C180.77375741 187.20074376 178.68987006 185.70900429 176.5625 184.14453125 C175.16828271 183.19813571 173.77244715 182.25411979 172.375 181.3125 C165.11249264 176.38047064 157.88905801 171.3956128 150.6875 166.375 C144.26286185 161.89768528 137.83408598 157.42749724 131.375 153 C123.84510667 147.83805348 116.3546116 142.62004076 108.86328125 137.40234375 C103.3788967 133.58428476 97.88672358 129.77847717 92.375 126 C84.8451325 120.83801536 77.35461198 115.62004103 69.86328125 110.40234375 C64.3788967 106.58428476 58.88672358 102.77847717 53.375 99 C45.8590418 93.84755067 38.38191793 88.63983802 30.9050293 83.4309082 C24.37036321 78.88080804 17.82121923 74.35278708 11.24609375 69.86132812 C8.82054681 68.20104654 6.43173532 66.54544766 4.13671875 64.70703125 C0.78555263 62.41099948 -1.27842465 63.69461386 -4.265625 65.78125 Z " fill="#000000" transform="translate(255.625,-0.5)"/>
<path d="M0 0 C4.78325715 4.20168627 4.78325715 4.20168627 5.62890625 7.31640625 C5.52199244 10.93260854 5.3562502 13.3649453 3.5625 16.5625 C-0.24264265 18.69709222 -3.72409507 18.64495898 -8 18 C-10.68589401 16.72659691 -12.80213695 14.97584159 -15.0625 13.0625 C-16.36317262 12.04136803 -17.66934008 11.02720251 -18.98046875 10.01953125 C-19.64353027 9.50986816 -20.3065918 9.00020508 -20.98974609 8.47509766 C-51.34280407 -13.79757375 -92.71317594 -21.12647968 -129.375 -15.875 C-154.31204193 -11.80082856 -178.65347468 -1.82428429 -198.375 14.0625 C-202.6580734 17.36427626 -205.6691045 19.2235724 -211.15234375 18.546875 C-214.26114453 17.62672255 -215.39732429 16.85694366 -217 14 C-217.9767273 10.7223916 -217.99330064 8.2826727 -217 5 C-199.91517933 -18.48632916 -159.24127316 -30.14371697 -132.22363281 -34.65625 C-85.52574888 -41.87524655 -37.06227587 -29.26224134 0 0 Z " fill="#000000" transform="translate(362,249)"/>
<path d="M0 0 C1.02351562 0.35707031 2.04703125 0.71414063 3.1015625 1.08203125 C13.64303053 5.1025642 31.69959023 13.39918047 37 24 C37.48602588 28.29322859 37.46241608 30.32082639 35 33.9375 C31.98175758 36.01254166 29.98371699 36.91492767 26.2890625 36.6796875 C22.22380095 35.47259619 19.20407884 32.78984533 15.890625 30.21875 C-4.89601652 14.26359813 -32.61069377 8.23482542 -58.3828125 11.50390625 C-76.84832109 14.24308872 -94.5348118 20.87959138 -109.03149414 32.79956055 C-113.58006184 36.34130351 -116.46017539 36.60788966 -122 36 C-125.67603491 33.472726 -126.79618438 32.00054939 -127.6875 27.625 C-126.48933922 21.30742498 -122.96859337 18.42939209 -117.9765625 14.8046875 C-82.37996997 -9.26827105 -40.20824742 -14.27435649 0 0 Z " fill="#000000" transform="translate(301,272)"/>
<path d="M0 0 C6.87382696 7.26502036 10.23428134 15.6365343 10.53515625 25.640625 C10.0230948 35.70263249 6.37855299 44.18368849 -0.55859375 51.5234375 C-7.60263047 57.60442232 -16.90859955 61.3317791 -26.3359375 60.8671875 C-37.85786027 59.08523811 -46.93041761 54.78765688 -53.93359375 45.3359375 C-59.35842849 36.42047094 -60.61432997 26.67539513 -58.55859375 16.5234375 C-55.37861268 6.14751988 -49.00785861 -1.2991172 -39.55859375 -6.4765625 C-26.47523999 -12.08371411 -10.60312983 -9.53414944 0 0 Z M-37.83984375 15.13671875 C-40.97082983 20.17984276 -41.98796759 24.29850034 -40.87109375 30.0859375 C-38.77728425 35.56972429 -35.93905436 39.07777359 -30.55859375 41.5234375 C-24.48857634 42.89408659 -21.13671989 42.68086739 -15.55859375 39.5234375 C-11.78857423 36.17230903 -9.01313845 33.30665131 -7.74609375 28.3359375 C-7.44775377 22.26969132 -9.0873465 18.25875477 -12.99609375 13.6484375 C-17.6456873 9.79267699 -21.05903632 9.06551412 -27.0234375 9.21484375 C-31.61236968 9.77343488 -34.88457926 11.41560829 -37.83984375 15.13671875 Z " fill="#000000" transform="translate(280.55859375,375.4765625)"/>
<path d="M0 0 C3.55831669 3.06429148 5.69466757 5.47333785 6.625 10.125 C5.85587772 13.66296249 4.50522717 15.42108968 2 18 C-0.85655117 19.42827559 -2.82241894 19.28575369 -6 19 C-9.0078125 17.42578125 -9.0078125 17.42578125 -12.125 15.3125 C-26.5826753 5.91646555 -41.53131897 1.99941046 -58.625 5 C-68.22128153 7.19433571 -77.15237404 11.7123967 -85.27734375 17.22265625 C-88.56170115 19.36667722 -90.15 19.65531915 -94 19 C-96.69990662 17.20006226 -98.5418865 15.916227 -100 13 C-100.67506231 8.85318866 -100.1360444 7.21607052 -97.875 3.625 C-73.12854714 -22.63179975 -27.43270468 -19.14958608 0 0 Z " fill="#000000" transform="translate(303,330)"/>
</svg>
