<?xml version="1.0" encoding="UTF-8"?>
<svg version="1.1" xmlns="http://www.w3.org/2000/svg" width="512" height="512">
<path d="M0 0 C0.97300572 -0.00583219 1.94601144 -0.01166439 2.94850218 -0.01767331 C4.54027535 -0.01200433 4.54027535 -0.01200433 6.16420555 -0.00622082 C7.29750498 -0.01004636 8.43080441 -0.01387191 9.59844625 -0.01781338 C13.40397207 -0.02814974 17.2093472 -0.02415 21.01488304 -0.02018261 C23.73978678 -0.02343461 26.46468209 -0.02964673 29.18958092 -0.03567028 C35.82675052 -0.04842101 42.46387967 -0.05021063 49.10105945 -0.04787002 C54.49374945 -0.04608763 59.88642715 -0.04783478 65.27911568 -0.05209446 C66.04634712 -0.05268965 66.81357857 -0.05328484 67.60405945 -0.05389806 C69.16260359 -0.05510979 70.72114773 -0.05632393 72.27969186 -0.05754044 C86.895152 -0.06841677 101.51058907 -0.06625265 116.12605052 -0.06015559 C129.50621148 -0.05498257 142.88629973 -0.06625187 156.26644631 -0.08525381 C169.99966669 -0.10460804 183.73285263 -0.11289271 197.46608675 -0.10913056 C205.1785804 -0.10721532 212.89101209 -0.10973767 220.60349464 -0.1238451 C227.16677042 -0.13572891 233.72994608 -0.13719746 240.29322316 -0.12505493 C243.64352771 -0.11914582 246.99349786 -0.11973475 250.34381485 -0.13005733 C253.97072265 -0.14042998 257.59713086 -0.13250058 261.22402 -0.11974621 C262.28966356 -0.12712049 263.35530711 -0.13449478 264.4532429 -0.14209253 C265.42103312 -0.13488598 266.38882335 -0.12767944 267.38594055 -0.12025452 C268.22355128 -0.12030953 269.06116201 -0.12036455 269.92415488 -0.12042123 C272.58763665 0.34553437 273.44467601 1.12533588 275.06712914 3.25447559 C276.19016047 6.94443569 276.4045176 8.56436282 274.69212914 12.06697559 C273.06712914 14.25447559 273.06712914 14.25447559 272.06712914 15.25447559 C270.62888097 15.35341058 269.18579691 15.38293917 267.74415112 15.38476086 C266.33593962 15.39019738 266.33593962 15.39019738 264.89927942 15.39574373 C263.85572894 15.39467548 262.81217846 15.39360722 261.73700523 15.3925066 C260.63782507 15.39532788 259.5386449 15.39814916 258.40615624 15.40105593 C254.69198463 15.40944479 250.97784267 15.41074383 247.26366234 15.41219044 C244.61318313 15.41685554 241.96270801 15.42193166 239.31223106 15.42758656 C233.58878621 15.43912986 227.86534432 15.44736503 222.14189148 15.45370579 C213.09621416 15.46401684 204.05057377 15.48457712 195.00491905 15.50682545 C191.91207803 15.51430584 188.81923684 15.5217195 185.72639561 15.52911282 C184.56685823 15.53188867 184.56685823 15.53188867 183.38389585 15.53472059 C174.57754557 15.55566221 165.7711912 15.57448277 156.96483421 15.59236622 C156.15950759 15.5940044 155.35418096 15.59564258 154.5244505 15.59733041 C141.47912311 15.62360506 128.43379288 15.64225301 115.38845024 15.65895812 C102.00222938 15.67637684 88.61606411 15.70522146 75.22988766 15.74384749 C66.96974117 15.76725495 58.70968533 15.78124273 50.44950541 15.78317513 C44.78722027 15.785284 39.12502526 15.79820902 33.46278057 15.81965445 C30.19521202 15.83168661 26.92785849 15.83720274 23.66026497 15.83294201 C20.11737018 15.82905974 16.57500628 15.84346259 13.03217125 15.8624773 C11.48357594 15.85418276 11.48357594 15.85418276 9.90369588 15.84572065 C4.56280851 15.89532172 0.64743646 16.17066732 -3.93287086 19.25447559 C-10.49877607 32.386286 -5.58340299 48.57682497 -5.93287086 63.25447559 C130.68712914 63.25447559 267.30712914 63.25447559 408.06712914 63.25447559 C410.83664903 37.99791974 410.83664903 37.99791974 403.06712914 17.25447559 C400.31302058 16.33643941 398.69105699 16.12795784 395.85423851 16.12317371 C394.99620628 16.11916553 394.13817406 16.11515736 393.25414085 16.11102772 C392.31586449 16.11155643 391.37758812 16.11208515 390.41087914 16.11262989 C389.42039574 16.10915546 388.42991234 16.10568104 387.40941429 16.10210133 C385.25683212 16.09474501 383.10424237 16.08939896 380.95165062 16.08581066 C377.54802321 16.07865417 374.14454071 16.06299512 370.74095726 16.04446888 C361.06324267 15.99195006 351.38560829 15.94398303 341.70775414 15.92854786 C335.79083625 15.91849122 329.87428379 15.88922879 323.95750999 15.84722805 C321.69923727 15.83488308 319.44091302 15.82980313 317.18260765 15.83202648 C314.02913157 15.83436787 310.87671278 15.8123024 307.72337914 15.78450489 C306.78510277 15.7911063 305.8468264 15.79770771 304.88011742 15.80450916 C298.59297714 15.71315377 298.59297714 15.71315377 295.98705101 13.44009876 C294.62988535 10.21563721 294.69676404 7.71121649 295.06712914 4.25447559 C296.31275463 2.0674715 296.31275463 2.0674715 298.06712914 0.25447559 C300.11621952 -0.24888897 300.11621952 -0.24888897 302.5121212 -0.25345898 C303.42182671 -0.26473827 304.33153221 -0.27601757 305.26880455 -0.28763866 C306.26468086 -0.27954174 307.26055717 -0.27144482 308.28661156 -0.26310253 C309.33733849 -0.27011181 310.38806541 -0.27712109 311.47063255 -0.28434277 C314.95488755 -0.30199075 318.43833416 -0.29027113 321.92259789 -0.27677441 C324.34295368 -0.27946836 326.76330842 -0.28334997 329.18366051 -0.28837109 C334.26381771 -0.29427622 339.343694 -0.28567396 344.42381859 -0.26700878 C350.92611109 -0.24427988 357.427741 -0.25729805 363.93000889 -0.28129864 C368.93241897 -0.2957809 373.93467313 -0.29113833 378.93708801 -0.28078747 C381.33360243 -0.27812376 383.73013113 -0.28137738 386.12662888 -0.29070568 C389.48502255 -0.3009039 392.84235877 -0.2853202 396.20067406 -0.26310253 C397.18642921 -0.27119946 398.17218437 -0.27929638 399.1878109 -0.28763866 C406.26900276 -0.20118005 411.58695356 1.32128243 417.05541039 5.93025684 C417.49240257 6.47037403 417.92939476 7.01049122 418.37962914 7.56697559 C419.05445335 8.36554981 419.05445335 8.36554981 419.74291039 9.18025684 C423.59740604 15.21782968 424.50264405 20.10580033 424.40770531 27.12727833 C424.40814339 27.98661472 424.40858147 28.84595112 424.40903282 29.73132801 C424.40695533 32.55047899 424.38367371 35.36902322 424.36009789 38.18806934 C424.35449823 40.15104313 424.35022988 42.11402113 424.34723473 44.07700062 C424.33581509 49.22764763 424.30637273 54.3780383 424.27312279 59.52858448 C424.24235971 64.79069521 424.22871608 70.05284761 424.21361351 75.31502247 C424.18150025 85.62828574 424.13033882 95.9413593 424.06712914 106.25447559 C425.72023094 106.24359913 425.72023094 106.24359913 427.40672874 106.23250294 C428.86514279 106.22663879 430.32355756 106.22095148 431.78197289 106.21541309 C432.50686913 106.21017628 433.23176537 106.20493946 433.97862816 106.19954395 C442.15898883 106.17624472 447.40236645 107.09647711 453.62181664 112.62166309 C456.60103307 115.98737247 457.3173249 118.86117888 457.32439804 123.30579662 C457.33084693 124.33069553 457.33729583 125.35559443 457.34394014 126.41155088 C457.34084293 127.53585465 457.33774573 128.66015841 457.33455467 129.81853199 C457.33908579 131.01419714 457.3436169 132.20986228 457.34828532 133.44175971 C457.35876818 136.76187144 457.36025303 140.08176682 457.35789657 143.40187979 C457.3574888 146.98206896 457.36852368 150.56222569 457.3780117 154.14239979 C457.39463117 161.15703418 457.40012167 168.17163496 457.40123646 175.18628739 C457.40218645 180.88742361 457.40629432 186.58854873 457.41263771 192.28968143 C457.43025245 208.44955632 457.43947618 224.60940463 457.43797676 240.76928918 C457.43785689 242.07631681 457.43785689 242.07631681 457.4377346 243.40974903 C457.43765284 244.28216329 457.43757108 245.15457755 457.43748684 246.05342861 C457.4366738 260.1946933 457.45581538 274.33585151 457.48401134 288.4770854 C457.51272702 302.99338791 457.52655237 317.50963846 457.52482378 332.0259701 C457.52415944 340.17734277 457.52967107 348.3286038 457.55117989 356.4799509 C457.56937437 363.41977316 457.57375334 370.35943319 457.56016104 377.29926895 C457.55362262 380.8403196 457.55354522 384.38105885 457.57086754 387.92208004 C457.58945093 391.76034891 457.57706649 395.59816102 457.56160545 399.43645191 C457.57189258 400.55629423 457.58217971 401.67613656 457.59277856 402.8299135 C457.53801998 408.96278054 457.19229928 412.60185831 453.06712914 417.25447559 C448.33328325 421.4247684 445.98388205 422.37960526 439.71443748 422.37473011 C438.72569632 422.37601175 438.72569632 422.37601175 437.71698058 422.37731928 C435.49822029 422.37897235 433.27953485 422.37345553 431.06078148 422.36800098 C429.47429977 422.36771905 427.88781792 422.36787697 426.30133629 422.36844349 C421.9854653 422.36873122 417.66962193 422.36283845 413.35375738 422.35586953 C408.84672719 422.34963192 404.33969642 422.34903187 399.83266258 422.34784412 C391.29393335 422.34473202 382.75521686 422.33652024 374.21649325 422.32649463 C364.49716558 422.31532977 354.77783731 422.3098221 345.05850482 422.3047992 C325.06137246 422.29433754 305.0642516 422.27674041 285.06712914 422.25447559 C286.94949444 425.89909631 288.83353075 429.54284815 290.7189846 433.18587208 C291.35744248 434.42002108 291.99547774 435.65438883 292.6330471 436.88899708 C296.32413971 444.03576615 300.06307574 451.14393395 304.01390648 458.15169239 C305.06712914 460.25447559 305.06712914 460.25447559 305.06712914 462.25447559 C305.90896751 462.24400196 306.75080589 462.23352833 307.61815453 462.22273731 C310.76967403 462.18846044 313.92109783 462.16348219 317.07274437 462.14461231 C318.43150032 462.13461316 319.79023508 462.12100936 321.14891624 462.10359669 C323.11244209 462.07907966 325.07613115 462.06900597 327.03978539 462.05916309 C328.80721092 462.04345264 328.80721092 462.04345264 330.61034203 462.02742481 C334.95972607 462.31310369 339.33635617 462.86131978 342.80931664 465.65681934 C347.66325053 472.23473666 347.28416063 477.59145275 347.30736351 485.54134083 C347.31704419 487.54935586 347.34824204 489.55722942 347.37962914 491.56502247 C347.38478539 492.84054981 347.38994164 494.11607716 347.39525414 495.43025684 C347.40459984 496.59468311 347.41394554 497.75910938 347.42357445 498.9588213 C346.90602146 503.74405951 345.34373312 506.82586866 342.1502285 510.39961815 C337.51602515 513.18765239 333.25850924 512.80365567 327.9455471 512.75568104 C326.80957525 512.76121543 325.6736034 512.76674983 324.50320816 512.77245194 C320.68835659 512.78608906 316.87415576 512.77107177 313.05931664 512.75618458 C310.32779903 512.75775937 307.59630525 512.76531295 304.86479759 512.77255726 C298.21085838 512.78649441 291.55710887 512.77893013 284.90317869 512.76388168 C277.15546907 512.74702616 269.40780677 512.75023126 261.66008449 512.75397576 C247.83674331 512.75985521 234.0134932 512.74567947 220.19017601 512.72102833 C206.7747767 512.6971073 193.35949907 512.69002395 179.94408226 512.70052052 C165.33782967 512.71192833 150.73163337 512.71386148 136.12538147 512.69942242 C134.5680612 512.69789657 133.01074092 512.69637621 131.45342064 512.69486141 C130.68717648 512.6941036 129.92093233 512.69334578 129.13146865 512.69256501 C123.73011049 512.68782112 118.32877745 512.68967435 112.92741966 512.69392681 C106.34552199 512.69885214 99.76373939 512.69287513 93.18186808 512.67303251 C89.82322517 512.66315677 86.46490408 512.65966529 83.10622978 512.66592503 C79.466868 512.67185839 75.82802604 512.6594093 72.18871117 512.64215565 C70.59314794 512.65117072 70.59314794 512.65117072 68.9653511 512.66036791 C59.93900657 512.5822532 59.93900657 512.5822532 56.06712914 509.25447559 C52.11056285 503.17706426 52.57827583 496.91465228 52.62108421 489.94173145 C52.6295945 487.82558825 52.60079461 485.71214972 52.56908226 483.59627247 C52.49096101 470.2788624 52.49096101 470.2788624 57.06712914 465.25447559 C64.43944576 460.8436114 73.2458689 461.92177362 81.56712914 462.06697559 C83.07232411 462.08204699 84.57753364 462.09573106 86.08275414 462.10799122 C89.74451854 462.14080872 93.40572935 462.1924557 97.06712914 462.25447559 C97.31188988 461.42995899 97.55665062 460.60544239 97.80882835 459.75594044 C99.27044712 455.68870405 101.15635703 452.03000878 103.19994164 448.23103809 C103.59664055 447.48486225 103.99333946 446.73868641 104.40205956 445.96989918 C105.66109358 443.60409087 106.92649898 441.24176056 108.19212914 438.87947559 C109.05062617 437.26902453 109.90870358 435.65834969 110.76634789 434.04744434 C112.86176076 430.11384844 114.96289176 426.18335748 117.06712914 422.25447559 C116.28452217 422.26113743 115.50191521 422.26779926 114.69559288 422.27466297 C107.32375792 422.33474991 99.95204153 422.3804375 92.58002567 422.40991211 C88.78989473 422.4255747 84.99996597 422.44682338 81.2099514 422.48079395 C77.55302313 422.51336689 73.89628943 422.53132414 70.23922729 422.53910732 C68.84334118 422.54465461 67.44746582 422.55548709 66.05166245 422.57166576 C64.09818323 422.59340988 62.14450862 422.59470074 60.19090843 422.59505177 C59.07838203 422.6017136 57.96585564 422.60837543 56.81961632 422.61523914 C54.06712914 422.25447559 54.06712914 422.25447559 52.24298668 420.94412708 C50.26241025 418.09813274 50.12604091 415.6713587 50.06712914 412.25447559 C51.66700962 409.52875329 52.76776354 407.72131204 55.80705762 406.62935358 C58.74474614 406.14207928 61.56171073 406.13045422 64.54077339 406.13142776 C65.19203589 406.13027392 65.84329839 406.12912008 66.51429611 406.12793127 C68.70565905 406.12527564 70.89694912 406.12977811 73.08830833 406.13422108 C74.67155927 406.13378516 76.25481014 406.13290987 77.83806062 406.13163191 C82.19583517 406.12939098 86.55358525 406.13340278 90.91135669 406.13840997 C95.60799011 406.14272002 100.3046221 406.14126765 105.00125694 406.1405077 C113.14087057 406.13998282 121.2804762 406.1431259 129.42008781 406.14874554 C141.1886657 406.15686535 152.95723971 406.15947625 164.72582009 406.16073353 C183.81859588 406.16292329 202.91136739 406.16958132 222.00414085 406.17903614 C240.55329428 406.18821222 259.10244655 406.1952921 277.65160179 406.19954395 C279.36605441 406.19993804 279.36605441 406.19993804 281.11514243 406.20034008 C286.84895918 406.2016451 292.58277593 406.20290882 298.31659269 406.20415199 C345.90010782 406.21452223 393.4836182 406.23221272 441.06712914 406.25447559 C441.39712914 399.65447559 441.72712914 393.05447559 442.06712914 386.25447559 C283.00712914 386.25447559 123.94712914 386.25447559 -39.93287086 386.25447559 C-39.60287086 392.85447559 -39.27287086 399.45447559 -38.93287086 406.25447559 C-37.05583473 406.23876514 -35.1787986 406.2230547 -33.24488258 406.20686817 C-27.0303538 406.1584152 -20.81586986 406.12398614 -14.60120392 406.09903908 C-10.83469873 406.08340953 -7.06839865 406.06222136 -3.30201149 406.02815723 C0.33547915 405.99546625 3.97277299 405.97760219 7.61039925 405.96984386 C8.99543288 405.96431775 10.38045622 405.95352654 11.76540565 405.93728542 C13.71108735 405.91538432 15.65696875 405.91424911 17.60277367 405.91389942 C18.70863823 405.90723759 19.81450279 405.90057575 20.9538784 405.89371204 C24.56245816 406.31187433 26.96881886 407.38543476 30.06712914 409.25447559 C31.61299789 412.34621311 31.36072435 414.84877112 31.06712914 418.25447559 C28.86908737 421.28826522 27.66155943 422.15819874 23.93105125 422.76241016 C22.69672356 422.76559254 21.46239586 422.76877491 20.19066429 422.77205372 C19.1654895 422.78256763 19.1654895 422.78256763 18.11960411 422.79329395 C15.86471742 422.81087012 13.61109067 422.79925138 11.35619164 422.78572559 C9.78444237 422.78842128 8.21269473 422.79230433 6.64095116 422.79732227 C3.34730205 422.80321728 0.0540871 422.79465708 -3.23951149 422.77595997 C-7.45188737 422.75320739 -11.66324171 422.76626915 -15.87557983 422.79024982 C-19.12194375 422.80474015 -22.36806765 422.80008648 -25.61443901 422.78973866 C-27.1669076 422.78707832 -28.71939828 422.79031668 -30.27184105 422.79965687 C-32.44768179 422.80987234 -34.62189661 422.79425348 -36.79761696 422.77205372 C-38.03353584 422.76887135 -39.26945473 422.76568897 -40.5428257 422.76241016 C-45.75218312 421.98188584 -48.82065563 419.51699019 -52.24537086 415.62947559 C-55.1291522 411.57082039 -55.08123866 408.52035678 -55.08004189 403.67589283 C-55.08555692 402.48924921 -55.08555692 402.48924921 -55.09118336 401.278633 C-55.102245 398.61318474 -55.1060682 395.94777543 -55.10987282 393.28230762 C-55.1161355 391.37719568 -55.12278212 389.47208496 -55.12978554 387.56697559 C-55.1472112 382.38104468 -55.15775115 377.195123 -55.16599107 372.00917006 C-55.17113694 368.77183368 -55.1772128 365.5345002 -55.1835022 362.29716587 C-55.20255696 352.17587651 -55.21678859 342.05459446 -55.22511417 331.9332906 C-55.23489456 320.23546046 -55.26123384 308.53781915 -55.30161506 296.84005558 C-55.33173068 287.80732945 -55.34657863 278.77465759 -55.34989518 269.74188221 C-55.3522505 264.34259447 -55.36127363 258.94350839 -55.38635635 253.54427433 C-55.40956308 248.46681732 -55.41390023 243.3896958 -55.40359497 238.31219959 C-55.40309772 236.44652538 -55.40947348 234.58083506 -55.42315102 232.71521091 C-55.44075556 230.17207588 -55.43382104 227.63015993 -55.42061806 225.08702564 C-55.4315873 224.34519728 -55.44255655 223.60336891 -55.4538582 222.8390609 C-55.41111256 219.43914612 -55.16243422 217.56596279 -53.12113667 214.79619122 C-49.91617147 212.5381726 -47.7555949 212.70837216 -43.93287086 213.25447559 C-6.67998134 250.50736512 -39.93287086 318.57093399 -39.93287086 371.25447559 C119.12712914 371.25447559 278.18712914 371.25447559 442.06712914 371.25447559 C441.73712914 289.41447559 441.40712914 207.57447559 441.06712914 123.25447559 C435.45712914 122.92447559 429.84712914 122.59447559 424.06712914 122.25447559 C424.07712189 124.70291889 424.07712189 124.70291889 424.08731651 127.20082569 C424.14805975 142.56322042 424.19324924 157.92557795 424.22256565 173.288064 C424.2380389 181.18658488 424.2591371 189.08501614 424.29344749 196.9834795 C424.32333591 203.8672551 424.34270081 210.75096581 424.34939462 217.63480449 C424.35330785 221.28024786 424.3625138 224.92550557 424.38431931 228.57088947 C424.40845639 232.6390048 424.40909949 236.70679673 424.40770531 240.77498341 C424.42388405 242.59083187 424.42388405 242.59083187 424.44038963 244.44336414 C424.43626564 245.55111698 424.43214165 246.65886982 424.42789268 247.80019093 C424.43065806 248.7625428 424.43342344 249.72489468 424.43627262 250.71640873 C423.99656873 253.73961763 423.20351544 255.09094895 421.06712914 257.25447559 C417.63822687 258.12728708 415.17453337 258.58370388 411.75462914 257.56697559 C410.06712914 256.25447559 410.06712914 256.25447559 408.06712914 252.25447559 C408.06712914 195.16447559 408.06712914 138.07447559 408.06712914 79.25447559 C271.44712914 79.25447559 134.82712914 79.25447559 -5.93287086 79.25447559 C-5.85037086 121.24697559 -5.76787086 163.23947559 -5.68287086 206.50447559 C-5.66707985 219.78085255 -5.65128883 233.0572295 -5.6350193 246.73592091 C-5.60181384 258.60052275 -5.60181384 258.60052275 -5.56330299 270.46510792 C-5.54624582 275.76413258 -5.54011356 281.06303871 -5.54133034 286.36208057 C-5.54283914 293.11273941 -5.52392423 299.86304626 -5.49178171 306.61364222 C-5.48323136 309.09648252 -5.48144689 311.57935708 -5.48704672 314.06220579 C-5.49363575 317.40606219 -5.47590813 320.74891607 -5.4518528 324.09267139 C-5.45961361 325.07293167 -5.46737442 326.05319195 -5.47537041 327.06315708 C-5.44377067 332.28335348 -5.44377067 332.28335348 -3.15828133 336.85715199 C-0.77742303 338.35208048 0.41131612 338.75889542 3.19267845 338.77345753 C4.0059359 338.78737034 4.81919334 338.80128315 5.65709496 338.81561756 C6.54038475 338.8105872 7.42367455 338.80555683 8.3337307 338.80037403 C9.27065758 338.81071171 10.20758446 338.82104939 11.17290306 338.83170033 C14.26802768 338.86118479 17.36249996 338.86262871 20.45775414 338.86385059 C22.60439366 338.8788284 24.75102164 338.8955547 26.89763451 338.91396046 C32.5463418 338.95769084 38.19489364 338.97764577 43.84374046 338.99269581 C49.60840125 339.0122463 55.37289365 339.05421864 61.13744164 339.09431934 C72.4472856 339.16968317 83.75709199 339.21993734 95.06712914 339.25447559 C95.04356346 338.12018116 95.04356346 338.12018116 95.01952171 336.96297169 C94.95694867 333.51854983 94.91806708 330.07424785 94.87962914 326.62947559 C94.85449242 325.43967091 94.8293557 324.24986622 94.80345726 323.02400684 C94.71101067 311.99204718 94.71101067 311.99204718 98.06712914 307.25447559 C102.50824484 303.22971448 108.35689801 303.54448733 114.06712914 303.25447559 C114.60107093 301.84269729 115.11878018 300.42477315 115.62962914 299.00447559 C115.9196682 298.21556934 116.20970726 297.42666309 116.50853539 296.61385059 C117.13369232 293.9733276 117.03884922 292.76475249 116.06712914 290.25447559 C115.25033498 288.97974111 114.39344554 287.73007998 113.50462914 286.50447559 C111.33416771 283.07743123 110.16591496 280.44652418 110.56493187 276.35384083 C112.52665104 268.15314897 121.86821804 261.12101601 127.56712914 255.44197559 C128.49138695 254.5016045 129.41564476 253.56123341 130.36791039 252.59236622 C131.26896507 251.690667 132.17001976 250.78896778 133.09837914 249.85994434 C133.90855492 249.04678761 134.7187307 248.23363087 135.55345726 247.39583302 C139.5151584 244.0209223 142.64396518 242.27780615 147.87962914 242.19197559 C151.51006419 242.76375189 153.57307416 244.26286827 156.44212914 246.50447559 C159.23954796 248.56470377 160.35738302 249.32396123 163.86009789 248.98103809 C166.35556655 248.21374307 168.69971219 247.3516918 171.06712914 246.25447559 C171.19667992 244.93383106 171.19667992 244.93383106 171.32884789 243.58650684 C172.61957983 232.91724556 172.61957983 232.91724556 175.56712914 230.00447559 C180.08553086 226.84159438 183.86310819 227.06083625 189.23900414 227.01619434 C190.15417809 227.0081226 191.06935204 227.00005085 192.01225853 226.9917345 C193.95240444 226.9778893 195.89257475 226.9671691 197.83275414 226.95930958 C200.79156161 226.9421241 203.7492438 226.89824552 206.70775414 226.85408497 C208.59316259 226.84395558 210.47858054 226.83544025 212.36400414 226.82869434 C213.24546104 226.81118626 214.12691795 226.79367817 215.03508568 226.77563953 C220.68291914 226.79545231 223.73031033 227.56475806 228.06712914 231.25447559 C230.79817206 235.67616414 230.69241169 241.17606811 231.06712914 246.25447559 C234.70682218 247.7397915 238.13948549 248.8903232 242.06712914 249.25447559 C244.50096899 248.05247412 246.15918298 246.59057192 248.16869164 244.77791309 C251.47995327 242.12072783 253.84597474 242.12047069 258.06712914 242.25447559 C263.07629278 244.73276543 266.70644367 247.51747265 270.67650414 251.50056934 C271.4167382 252.24005566 271.4167382 252.24005566 272.1719265 252.99448109 C273.20392579 254.02880194 274.23228101 255.06677073 275.25707054 256.10823536 C276.81846912 257.69333592 278.39288157 259.2645785 279.96947289 260.83455372 C290.66776606 271.59205508 290.66776606 271.59205508 291.62962914 278.00447559 C291.50618236 282.66900033 289.1319728 285.54366043 286.28197289 289.07869434 C284.81964093 291.21129948 284.81964093 291.21129948 285.31712914 293.78572559 C285.56462914 294.60041309 285.81212914 295.41510059 286.06712914 296.25447559 C286.41775414 297.51260059 286.76837914 298.77072559 287.12962914 300.06697559 C287.59369164 301.64478809 287.59369164 301.64478809 288.06712914 303.25447559 C288.79158226 303.28025684 289.51603539 303.30603809 290.26244164 303.33260059 C296.21652224 303.68190666 300.50156414 304.0401079 305.06712914 308.25447559 C306.99798836 312.07278071 307.30429625 315.18201378 307.26244164 319.43025684 C307.25599632 320.58719044 307.24955101 321.74412403 307.24291039 322.93611622 C307.22615257 324.13429981 307.20939476 325.33248341 307.19212914 326.56697559 C307.1831057 327.78449512 307.17408226 329.00201466 307.16478539 330.25642872 C307.14125951 333.25597834 307.10838566 336.25512603 307.06712914 339.25447559 C319.53221817 339.14705096 331.99724833 339.03443319 344.46222973 338.91513634 C350.24986222 338.8599097 356.03749977 338.80649004 361.82518578 338.75716114 C367.40784419 338.70951387 372.99044043 338.65717081 378.57302475 338.60153484 C380.70571093 338.58111296 382.83841416 338.5623996 384.97113037 338.54540157 C387.95216742 338.521354 390.93308669 338.49129975 393.91405296 338.45979786 C394.80093803 338.4540424 395.6878231 338.44828693 396.60158348 338.44235706 C397.81940765 338.42767384 397.81940765 338.42767384 399.06183434 338.41269398 C399.76700597 338.40624143 400.4721776 338.39978888 401.19871807 338.39314079 C403.29649571 338.31421256 403.29649571 338.31421256 406.06712914 337.25447559 C407.05752007 334.2833028 407.19701437 332.32049493 407.20897484 329.21980762 C407.21600929 328.19509357 407.22304375 327.17037952 407.23029137 326.11461353 C407.23653778 324.45521244 407.23653778 324.45521244 407.24291039 322.76228809 C407.26610521 320.42503947 407.29022241 318.08779985 407.31517601 315.75056934 C407.3503213 312.06154289 407.37965321 308.37284848 407.39305687 304.68367481 C407.40851615 301.12613649 407.44871108 297.56957016 407.49291039 294.01228809 C407.49100197 292.91006916 407.48909355 291.80785023 407.4871273 290.67223072 C407.60952776 283.01971699 407.60952776 283.01971699 409.97801781 279.05891895 C412.23620493 277.10843853 413.12415668 276.59425971 416.06712914 276.69197559 C416.72712914 276.69068653 417.38712914 276.68939747 418.06712914 276.68806934 C420.96289698 277.50815985 422.16129255 278.95314725 424.06712914 281.25447559 C424.58179283 283.79417896 424.58179283 283.79417896 424.6005764 286.69051075 C424.61641273 287.77909382 424.63224907 288.86767689 424.64856529 289.98924732 C424.64112549 291.74862125 424.64112549 291.74862125 424.63353539 293.54353809 C424.64283325 295.36394108 424.64283325 295.36394108 424.65231895 297.22111988 C424.6594253 299.79163784 424.65622905 302.36220176 424.64354515 304.93269825 C424.62975344 308.84421996 424.66365494 312.75331494 424.70189476 316.66463184 C424.70284669 319.16593451 424.70098315 321.66724014 424.69603539 324.16853809 C424.70929359 325.32930866 424.7225518 326.49007923 424.73621178 327.68602467 C424.65144209 335.17674957 423.44939341 341.05315391 419.06712914 347.25447559 C413.02555114 352.97970549 407.45826115 355.50133134 399.07670116 355.51453781 C398.3816947 355.51834348 397.68668823 355.52214915 396.97062096 355.52607015 C394.636326 355.53639563 392.30227377 355.53247803 389.96796227 355.52863026 C388.27960335 355.53308215 386.59124652 355.53839603 384.90289277 355.54449898 C380.25883432 355.55869538 375.61484275 355.56034196 370.97076571 355.55990207 C365.9637848 355.56154884 360.95683156 355.57461277 355.94986534 355.58609486 C344.99942639 355.60895515 334.0490068 355.61686661 323.09854722 355.6219213 C316.26153032 355.6251772 309.42451906 355.63169903 302.58750534 355.63892269 C283.65917485 355.65849015 264.73084961 355.67489344 245.80250835 355.67779922 C244.59097897 355.67798679 243.37944958 355.67817436 242.13120718 355.67836762 C239.67511729 355.67873387 237.21902741 355.67909757 234.76293752 355.67945873 C232.93411662 355.67973295 232.93411662 355.67973295 231.06834984 355.6800127 C229.84764839 355.68019325 228.62694695 355.6803738 227.36925455 355.68055982 C207.58870825 355.68410159 187.80827081 355.71112356 168.02776227 355.74851059 C147.72122701 355.78658482 127.41474578 355.80595664 107.10817403 355.80625874 C95.70603886 355.80684351 84.30403353 355.81534863 72.90193176 355.8442564 C63.19289047 355.86875843 53.48402637 355.8760611 43.77496252 355.86100888 C38.82178248 355.85383515 33.86895244 355.85471752 28.91581154 355.87741947 C24.37865907 355.89801544 19.84212552 355.89540332 15.3049797 355.87454463 C13.66633026 355.87105092 12.0276361 355.87595476 10.38904528 355.89024907 C1.49709305 355.96279983 -6.50455976 355.85258062 -13.93287086 350.25447559 C-20.22080137 343.56984966 -22.23829995 337.65103281 -22.1733799 328.49097157 C-22.17508875 327.60873568 -22.1767976 326.7264998 -22.17855823 325.8175295 C-22.18185207 322.86177717 -22.17085109 319.90625193 -22.15992165 316.95052052 C-22.15935751 314.8315834 -22.15967414 312.71264588 -22.16080666 310.59370899 C-22.16138107 304.84002216 -22.14961228 299.08641852 -22.13565874 293.33275104 C-22.12316627 287.32027942 -22.12198205 281.30780596 -22.11960793 275.29532337 C-22.1133888 263.90923798 -22.0969721 252.52319094 -22.07690895 241.13712245 C-22.05456343 228.17474336 -22.0435599 215.21236244 -22.03351808 202.24996889 C-22.01260627 175.58478246 -21.97701955 148.91963279 -21.93287086 122.25447559 C-30.34787086 122.74947559 -30.34787086 122.74947559 -38.93287086 123.25447559 C-38.95474464 126.27535328 -38.95474464 126.27535328 -38.97706032 129.3572588 C-39.02737003 136.00705602 -39.09395842 142.65661819 -39.16858578 149.30618477 C-39.21333674 153.33832589 -39.25258215 157.37036486 -39.27930641 161.40266895 C-39.30529269 165.29320722 -39.3456611 169.18335342 -39.39605713 173.07364941 C-39.41275768 174.55876957 -39.42425209 176.04395761 -39.43048477 177.52915859 C-39.44009177 179.60769464 -39.46810708 181.68522045 -39.50049782 183.7635088 C-39.5171524 185.53888775 -39.5171524 185.53888775 -39.53414345 187.35013294 C-39.93287086 190.25447559 -39.93287086 190.25447559 -41.28020668 192.10547352 C-43.82443296 193.87432729 -45.85789628 194.13147661 -48.93287086 194.25447559 C-51.26018643 193.11667687 -53.10127801 192.08606845 -54.93287086 190.25447559 C-55.04832557 188.0474772 -55.09258971 185.83673869 -55.10987282 183.62679005 C-55.11644402 182.9340247 -55.12301521 182.24125935 -55.12978554 181.52750111 C-55.14956875 179.22425202 -55.16119468 176.9210684 -55.17115211 174.61775684 C-55.17522764 173.83181833 -55.17930317 173.04587982 -55.1835022 172.23612499 C-55.20438842 168.07305505 -55.21867671 163.91001829 -55.22803688 159.74690723 C-55.23908218 155.45048823 -55.27345248 151.15458991 -55.31320858 146.85835457 C-55.33939139 143.55286177 -55.34773037 140.24749239 -55.35131836 136.94190502 C-55.35618327 135.35870012 -55.36779466 133.77550069 -55.38635635 132.19239712 C-55.41077533 129.97089475 -55.40977813 127.75073004 -55.40284157 125.5291338 C-55.40870781 124.26640141 -55.41457405 123.00366901 -55.42061806 121.702672 C-54.69954706 116.60496063 -52.25733808 113.57894281 -48.68287086 110.00447559 C-42.55231768 106.10321448 -36.70672167 106.14624916 -29.63990211 106.20760059 C-28.8979258 106.21098438 -28.15594948 106.21436817 -27.39148903 106.2178545 C-25.57192991 106.2266411 -23.75239434 106.24009096 -21.93287086 106.25447559 C-21.94175331 105.17199039 -21.95063576 104.0895052 -21.95978737 102.97421741 C-22.04103983 92.74935951 -22.10091614 82.52456752 -22.14011955 72.29945946 C-22.16095235 67.04319789 -22.18919122 61.78719795 -22.23462868 56.53108692 C-22.27824013 51.45416108 -22.30204035 46.37748616 -22.31237984 41.30038738 C-22.31974379 39.36798054 -22.33412373 37.43558671 -22.35579109 35.50328732 C-22.38502871 32.78667117 -22.38881842 30.07107845 -22.38697243 27.35432911 C-22.40135353 26.5638216 -22.41573463 25.77331409 -22.43055153 24.95885181 C-22.38071895 18.13630593 -20.38887158 12.17921601 -15.96802711 6.91463184 C-15.31705055 6.38740528 -14.66607399 5.86017872 -13.99537086 5.31697559 C-13.02277321 4.49906544 -13.02277321 4.49906544 -12.03052711 3.66463184 C-8.14424561 1.05206644 -4.66389837 0.00482443 0 0 Z M188.06712914 243.25447559 C187.07712914 247.21447559 186.08712914 251.17447559 185.06712914 255.25447559 C181.59375858 259.29211212 176.56091263 261.02121239 171.69212914 263.00447559 C170.96251976 263.32029591 170.23291039 263.63611622 169.48119164 263.96150684 C164.87481482 265.86163728 161.13122697 266.83092737 156.06712914 266.25447559 C153.99291039 265.12556934 153.99291039 265.12556934 152.37962914 263.69197559 C150.81153391 262.22155865 150.81153391 262.22155865 149.06712914 261.25447559 C145.40649986 261.67310756 143.69992479 263.26766069 141.17650414 265.85213184 C140.46751976 266.57078419 139.75853539 267.28943653 139.02806664 268.02986622 C138.29845726 268.78461231 137.56884789 269.53935841 136.81712914 270.31697559 C136.07205101 271.07558887 135.32697289 271.83420216 134.55931664 272.61580372 C132.7216622 274.48879766 130.89137189 276.3684317 129.06712914 278.25447559 C130.15023541 280.50074383 131.19867327 282.43155423 132.69212914 284.44197559 C134.67896892 288.50596607 134.85221051 291.88668162 134.06712914 296.25447559 C128.61258368 311.70902105 128.61258368 311.70902105 123.06712914 317.25447559 C120.24681664 317.88728809 120.24681664 317.88728809 116.94212914 318.37947559 C115.00337914 318.66822559 113.06462914 318.95697559 111.06712914 319.25447559 C111.06712914 325.85447559 111.06712914 332.45447559 111.06712914 339.25447559 C120.30712914 339.25447559 129.54712914 339.25447559 139.06712914 339.25447559 C139.31462914 336.01635059 139.56212914 332.77822559 139.81712914 329.44197559 C140.52542545 321.51791062 141.5197973 314.46660059 145.06712914 307.25447559 C145.47705101 306.35986622 145.88697289 305.46525684 146.30931664 304.54353809 C153.92501744 289.1830568 166.54869195 279.41241994 182.62962914 273.94588184 C199.05740942 269.28607878 217.43121692 271.33951704 232.31712914 279.44197559 C246.35404652 288.24542178 256.00110588 300.67884605 260.78197289 316.64119434 C262.46085587 324.05523963 262.65448098 331.68925945 263.06712914 339.25447559 C272.30712914 339.25447559 281.54712914 339.25447559 291.06712914 339.25447559 C291.06712914 332.65447559 291.06712914 326.05447559 291.06712914 319.25447559 C288.22087914 318.88322559 288.22087914 318.88322559 285.31712914 318.50447559 C281.89201472 318.05772154 279.6777704 317.70075531 276.87572289 315.65291309 C274.53669091 312.55104348 273.2115967 309.24135648 271.87962914 305.62947559 C271.36575608 304.28294966 270.85145253 302.93658791 270.33666039 301.59041309 C269.91771507 300.48955372 269.49876976 299.38869434 269.06712914 298.25447559 C268.73712914 297.59447559 268.40712914 296.93447559 268.06712914 296.25447559 C267.34496254 291.18899279 267.51766791 287.41298124 270.56712914 283.19197559 C271.39212914 282.22260059 272.21712914 281.25322559 273.06712914 280.25447559 C270.89933603 275.41137705 267.38603687 272.1673655 263.69212914 268.44197559 C263.01923851 267.73621387 262.34634789 267.03045216 261.65306664 266.30330372 C260.67080101 265.31040333 260.67080101 265.31040333 259.66869164 264.29744434 C259.07395042 263.68924854 258.47920921 263.08105274 257.86644554 262.45442677 C256.14423733 261.03505171 256.14423733 261.03505171 254.04125023 261.43147755 C251.77440629 262.3024274 251.77440629 262.3024274 248.87962914 264.37947559 C245.48934084 266.30966073 242.80148062 266.72254583 238.87181664 266.06306934 C235.05172698 264.9617343 231.41755495 263.54448033 227.75462914 262.00447559 C227.06054955 261.71725636 226.36646996 261.43003712 225.65135765 261.13411427 C221.33844234 259.21313037 218.47238116 257.4822345 216.06712914 253.25447559 C215.07712914 248.30447559 215.07712914 248.30447559 214.06712914 243.25447559 C205.48712914 243.25447559 196.90712914 243.25447559 188.06712914 243.25447559 Z M165.75462914 302.50447559 C156.62914264 314.06342515 155.06712914 324.77939983 155.06712914 339.25447559 C185.42712914 339.25447559 215.78712914 339.25447559 247.06712914 339.25447559 C247.06712914 323.49680893 244.81385108 311.76531637 233.96556664 299.96931934 C223.15724111 289.75296924 211.08038673 286.60766107 196.58275414 286.94978809 C184.27078238 287.57103437 174.12087992 293.61669229 165.75462914 302.50447559 Z M136.06712914 422.25447559 C134.17582301 425.7163435 132.28546242 429.1787269 130.39525414 432.64119434 C129.86689964 433.6082732 129.33854515 434.57535206 128.79417992 435.57173634 C125.43805605 441.72076359 122.10971464 447.88369162 118.81712914 454.06697559 C118.43669456 454.77962574 118.05625999 455.49227589 117.6642971 456.22652149 C115.86235931 459.09496353 115.86235931 459.09496353 115.06712914 462.25447559 C120.89198891 463.10001975 125.96062658 463.5922415 131.07494164 460.34431934 C133.05290423 458.60080191 134.99715142 456.84216877 136.93041039 455.05135059 C154.73468299 438.65134276 181.37720548 432.38869983 204.98509789 432.97713184 C227.29837877 434.28903736 250.02784786 440.99350471 266.71483421 456.4510088 C271.5710256 460.9412403 274.58147619 462.88674952 281.31712914 462.87947559 C283.23861073 462.72160739 285.15917052 462.53143733 287.06712914 462.25447559 C282.36180882 452.71928237 277.53907791 443.24878764 272.62962914 433.81697559 C272.09756859 432.79209034 271.56550804 431.76720509 271.01732445 430.7112627 C270.51942406 429.75743702 270.02152367 428.80361134 269.50853539 427.82088184 C269.0619558 426.96438038 268.61537621 426.10787891 268.1552639 425.22542286 C267.21853588 423.31345824 267.21853588 423.31345824 266.06712914 422.25447559 C264.38421217 422.15830753 262.69723353 422.13259869 261.01157188 422.13422108 C259.91635719 422.13284641 258.8211425 422.13147175 257.69273949 422.13005543 C256.48073875 422.1336507 255.26873802 422.13724598 254.02000999 422.1409502 C252.7518998 422.14080418 251.4837896 422.14065815 250.17725182 422.1405077 C246.68980492 422.14021974 243.20239213 422.14611615 239.71495318 422.15308166 C236.0740919 422.15931552 232.43322992 422.15991902 228.79236412 422.16110706 C221.89335942 422.16422028 214.99437048 422.17243354 208.09537274 422.18245655 C200.24302229 422.19361798 192.3906711 422.19912821 184.5383147 422.20415199 C168.3812436 422.21461617 152.22418838 422.23221543 136.06712914 422.25447559 Z M155.06712914 461.25447559 C155.06712914 461.58447559 155.06712914 461.91447559 155.06712914 462.25447559 C185.42712914 462.25447559 215.78712914 462.25447559 247.06712914 462.25447559 C236.17557646 451.36292292 216.33238705 448.40455064 201.62962914 448.00447559 C184.86288892 448.16603947 169.43243715 452.53135574 155.06712914 461.25447559 Z M69.06712914 478.25447559 C69.06712914 484.52447559 69.06712914 490.79447559 69.06712914 497.25447559 C155.52712914 497.25447559 241.98712914 497.25447559 331.06712914 497.25447559 C331.06712914 490.98447559 331.06712914 484.71447559 331.06712914 478.25447559 C244.60712914 478.25447559 158.14712914 478.25447559 69.06712914 478.25447559 Z " fill="#000000" transform="translate(54.932870864868164,-0.25447559356689453)"/>
<path d="M0 0 C0.9590625 -0.01546875 0.9590625 -0.01546875 1.9375 -0.03125 C5.10611462 0.78490831 6.63850522 2.21831541 9 4.5 C10.53458889 7.29968168 11.59279513 10.23439477 12.671875 13.234375 C13.15814362 14.52811539 13.15814362 14.52811539 13.65423584 15.84799194 C14.70100898 18.64338693 15.72596464 21.44620456 16.75 24.25 C17.46162796 26.16827488 18.17452191 28.08608057 18.88867188 30.00341797 C20.29377928 33.78012597 21.69119142 37.55955564 23.08398438 41.34082031 C24.69202448 45.69176516 26.35217029 50.01803392 28.046875 54.3359375 C28.47129883 55.42551758 28.89572266 56.51509766 29.33300781 57.63769531 C30.0838836 59.55981166 30.84300141 61.47873925 31.61230469 63.39355469 C33.64802298 68.68642226 34.50788403 72.81922308 34 78.5 C32.4375 81 32.4375 81 30 82.5 C26.26438239 83.03365966 24.0470087 83.15811976 20.8125 81.125 C17.99761882 77.04827554 15 71.56110335 15 66.5 C5.1 66.5 -4.8 66.5 -15 66.5 C-15.99 69.8 -16.98 73.1 -18 76.5 C-20.39726027 81.19863014 -20.39726027 81.19863014 -23 82.5 C-26.51055666 82.76004123 -29.13276702 82.88797265 -32.375 81.4375 C-34.71133774 78.65186654 -35.11002562 76.04020402 -35 72.5 C-34.0557571 68.70796574 -32.63214818 65.13813226 -31.1875 61.51171875 C-30.57769287 59.92590752 -30.57769287 59.92590752 -29.95556641 58.30805969 C-28.65198001 54.92852999 -27.32643725 51.55811746 -26 48.1875 C-25.13785773 45.96345805 -24.27716637 43.73885307 -23.41796875 41.51367188 C-21.74450931 37.184949 -20.05566101 32.86272071 -18.35546875 28.54443359 C-16.85340187 24.71915074 -15.39489183 20.883345 -13.98828125 17.02197266 C-13.68100098 16.19123734 -13.3737207 15.36050201 -13.05712891 14.5045929 C-12.49865793 12.98897408 -11.95172236 11.46902662 -11.41943359 9.9440155 C-9.39749729 4.51166287 -6.28445416 -0.10136216 0 0 Z M-1 28.5 C-3.64 35.76 -6.28 43.02 -9 50.5 C-3.06 50.5 2.88 50.5 9 50.5 C6.36 43.24 3.72 35.98 1 28.5 C0.34 28.5 -0.32 28.5 -1 28.5 Z " fill="#000000" transform="translate(220,118.5)"/>
<path d="M0 0 C3.26213062 0.70500259 4.73012873 2.13147881 7.1328125 4.4609375 C8.70252596 7.29714622 9.80238971 10.27107854 10.921875 13.30859375 C11.2590152 14.18701431 11.5961554 15.06543488 11.94351196 15.97047424 C13.02242647 18.79492239 14.0788102 21.62710886 15.1328125 24.4609375 C15.83497469 26.32299435 16.53777087 28.18481225 17.24121094 30.04638672 C19.35256712 35.65547594 21.43219543 41.27604552 23.5078125 46.8984375 C24.57407239 49.78004471 25.64106837 52.66137745 26.70864868 55.54249573 C27.36400374 57.31179994 28.01849508 59.08142441 28.67196655 60.85142517 C28.96632599 61.64738602 29.26068542 62.44334686 29.56396484 63.26342773 C29.83569519 64.00027802 30.10742554 64.7371283 30.38739014 65.49630737 C31.00214499 67.11655111 31.67104865 68.71614036 32.35400391 70.30883789 C33.55848231 73.63720063 33.00725738 76.08807869 32.1328125 79.4609375 C29.76787824 82.28066681 28.304746 82.43944581 24.6328125 82.8984375 C21.1328125 82.4609375 21.1328125 82.4609375 18.9453125 81.0859375 C16.13043132 77.00921304 13.1328125 71.52204085 13.1328125 66.4609375 C3.2328125 66.4609375 -6.6671875 66.4609375 -16.8671875 66.4609375 C-17.8571875 69.7609375 -18.8471875 73.0609375 -19.8671875 76.4609375 C-22.26444777 81.15956764 -22.26444777 81.15956764 -24.8671875 82.4609375 C-28.66596349 82.81267602 -31.01078903 82.98795194 -34.3046875 80.9609375 C-36.50689624 77.43740351 -36.40931827 74.46114562 -35.8671875 70.4609375 C-34.5873741 65.98483047 -32.9182954 61.67996366 -31.23046875 57.34375 C-30.74819006 56.07915112 -30.26694137 54.814159 -29.78666687 53.54879761 C-28.78002361 50.90482973 -27.764754 48.26440898 -26.74243164 45.62646484 C-25.44335477 42.27390377 -24.1603544 38.9154929 -22.88317585 35.55453682 C-21.88978645 32.94288848 -20.89065348 30.33346886 -19.88957787 27.72475815 C-19.18738885 25.89437211 -18.48761885 24.06305864 -17.78791809 22.23171997 C-9.32102624 0.40208349 -9.32102624 0.40208349 0 0 Z M-1.8671875 28.4609375 C-4.02834603 33.22008447 -6.12697758 38.00257055 -8.1171875 42.8359375 C-8.45234375 43.64804688 -8.7875 44.46015625 -9.1328125 45.296875 C-10.02786304 47.55353871 -10.02786304 47.55353871 -9.8671875 50.4609375 C-4.2571875 50.4609375 1.3528125 50.4609375 7.1328125 50.4609375 C6.1757863 47.73130618 5.21723904 45.00222508 4.2578125 42.2734375 C3.85369141 41.12004883 3.85369141 41.12004883 3.44140625 39.94335938 C2.08223431 36.08132202 0.69567038 32.24669518 -0.8671875 28.4609375 C-1.1971875 28.4609375 -1.5271875 28.4609375 -1.8671875 28.4609375 Z " fill="#000000" transform="translate(341.8671875,118.5390625)"/>
<path d="M0 0 C5.2969384 4.0589427 6.76841479 8.92904163 8.734375 15.04296875 C9.05786926 16.00777664 9.38136353 16.97258453 9.71466064 17.96662903 C10.74049342 21.03578838 11.74567502 24.11124344 12.75 27.1875 C13.77322685 30.27278584 14.80054364 33.35668854 15.82818604 36.44050598 C16.46502524 38.35687197 17.0983897 40.27439681 17.72796631 42.19316101 C18.0120636 43.05778458 18.29616089 43.92240814 18.58886719 44.81323242 C18.83803894 45.57536545 19.08721069 46.33749847 19.34393311 47.12272644 C19.97472847 49.05536755 19.97472847 49.05536755 21 51 C21.40839111 49.794646 21.81678223 48.58929199 22.23754883 47.34741211 C23.7611021 42.85312698 25.28833411 38.36009907 26.81665039 33.86743164 C27.47617545 31.92701482 28.13471758 29.9862636 28.79223633 28.04516602 C29.74038317 25.24666145 30.69212002 22.44939946 31.64453125 19.65234375 C31.9352803 18.7916478 32.22602936 17.93095184 32.52558899 17.04417419 C37.65024724 2.03377846 37.65024724 2.03377846 41 0 C44.57993132 -0.39053796 47.06762954 -0.4171131 50.375 1.0625 C52.76198289 3.90851806 52.72035678 6.33310237 53 10 C52.34992981 13.23109436 52.34992981 13.23109436 51.24926758 16.57446289 C51.05101379 17.19007584 50.85276001 17.80568878 50.64849854 18.43995667 C49.99500713 20.45593245 49.32042494 22.46409138 48.64453125 24.47265625 C48.18082243 25.88283308 47.71816754 27.29335687 47.2565155 28.70420837 C46.28796742 31.65338831 45.30937801 34.59897373 44.32299805 37.54223633 C43.0636155 41.30157356 41.8255744 45.06751035 40.59451771 48.83620548 C39.64160003 51.74774407 38.67942161 54.65615427 37.71426964 57.56365776 C37.25464516 58.95065757 36.7973833 60.33844276 36.34259987 61.72703743 C35.7033336 63.67281836 35.05218067 65.61422176 34.39770508 67.55493164 C34.03050858 68.65744766 33.66331207 69.75996368 33.2849884 70.89588928 C31.3263162 75.6273992 29.29081516 79.13945656 25 82 C19.40983607 82.63114754 19.40983607 82.63114754 17 82 C12.66155767 78.34762283 10.74414154 74.68390056 9.01953125 69.40234375 C8.76481049 68.66340881 8.51008972 67.92447388 8.24765015 67.16314697 C7.42213529 64.75905559 6.61707784 62.34867032 5.8125 59.9375 C5.24597724 58.27140445 4.67801181 56.60579878 4.10864258 54.94067383 C3.24410472 52.41232397 2.38047152 49.88372188 1.52232361 47.35319519 C-0.27039924 42.07740935 -2.13271233 36.8335923 -4.0703125 31.609375 C-4.30621597 30.96927994 -4.54211945 30.32918488 -4.78517151 29.66969299 C-5.87891294 26.70246973 -6.98240657 23.73969296 -8.10424805 20.78295898 C-10.24872147 14.93541623 -11.66069511 10.24069616 -11 4 C-8.16650967 -0.53358453 -5.10426635 -0.80593679 0 0 Z " fill="#000000" transform="translate(259,119)"/>
<path d="M0 0 C3.1850357 1.76015131 3.83296972 2.49890916 5 6 C5.1031967 7.83854713 5.14851629 9.68057484 5.16113281 11.52197266 C5.17074036 12.65390045 5.1803479 13.78582825 5.19024658 14.95205688 C5.19449646 16.17701874 5.19874634 17.40198059 5.203125 18.6640625 C5.20882507 19.9258432 5.21452515 21.1876239 5.22039795 22.48764038 C5.22985402 25.16253259 5.23674716 27.83731247 5.24023438 30.51220703 C5.24569487 33.91813872 5.2696724 37.32366572 5.29820633 40.72947121 C5.32147279 43.99930373 5.32329267 47.26915884 5.328125 50.5390625 C5.3404718 51.75187897 5.3528186 52.96469543 5.36553955 54.21426392 C5.34567038 61.83355717 5.07946811 69.21231746 0.09765625 75.33984375 C-0.57394531 75.86707031 -1.24554688 76.39429688 -1.9375 76.9375 C-2.60652344 77.48277344 -3.27554688 78.02804688 -3.96484375 78.58984375 C-9.81090216 82.64056752 -14.9928526 82.71960435 -22 82 C-27.81683798 80.32444601 -31.87469674 77.14162794 -35 72 C-35 68.4530632 -34.64099902 66.16888056 -32.9375 63.0625 C-29.76070668 61.32038753 -26.48824537 61.45860239 -23 62 C-21.31970006 62.97691857 -19.65071396 63.97388051 -18 65 C-15.28431033 64.94141059 -15.28431033 64.94141059 -13 64 C-11.69153157 61.38306314 -11.86821168 59.44276207 -11.8581543 56.51220703 C-11.85111984 55.36406525 -11.84408539 54.21592346 -11.83683777 53.0329895 C-11.83267349 51.78718109 -11.82850922 50.54137268 -11.82421875 49.2578125 C-11.80102415 46.63931485 -11.77690696 44.02082523 -11.75195312 41.40234375 C-11.71552932 37.25895161 -11.68578684 33.11570891 -11.67407227 28.97216797 C-11.66205672 24.98376969 -11.61845701 20.99598714 -11.57421875 17.0078125 C-11.57612717 15.76605255 -11.57803558 14.5242926 -11.58000183 13.24490356 C-11.56351089 12.09045746 -11.54701996 10.93601135 -11.5300293 9.74658203 C-11.52416306 8.73113312 -11.51829681 7.7156842 -11.51225281 6.66946411 C-10.27038531 0.19781446 -5.94574571 -0.74321821 0 0 Z " fill="#000000" transform="translate(172,119)"/>
<path d="M0 0 C6.80266214 4.74394887 12.52979542 11.37541079 18.37524414 17.24487305 C19.95539644 18.83045796 21.54091976 20.41053442 23.12695312 21.99023438 C24.13573806 22.99967892 25.14421338 24.00943299 26.15234375 25.01953125 C27.05976318 25.92807861 27.96718262 26.83662598 28.90209961 27.77270508 C31.45007878 30.47783878 31.92090025 31.46702422 32.46875 35.15844727 C31.8108028 40.55053021 29.27431665 42.75429582 25.5 46.46484375 C24.830896 47.14301651 24.16179199 47.82118927 23.47241211 48.51991272 C22.05524735 49.94620541 20.62913523 51.36365622 19.19482422 52.77270508 C17.00852929 54.92908741 14.86513645 57.12244591 12.72265625 59.32226562 C11.33834847 60.70554198 9.95170295 62.08648361 8.5625 63.46484375 C7.60730469 64.44903542 7.60730469 64.44903542 6.6328125 65.45310974 C3.42550127 68.54667416 1.2535348 70.39893886 -3.31640625 70.50610352 C-7 70 -7 70 -9.5 68.4375 C-11.68071663 64.89383548 -11.75331723 63.10900306 -11 59 C-9.10745321 55.9210806 -6.55774064 53.53427513 -4 51 C-2.73109673 49.7194176 -1.46293434 48.43810087 -0.1953125 47.15625 C3.51577583 43.41646883 7.25112879 39.70187475 11 36 C9.49287699 32.44961928 7.42833908 30.20886613 4.68359375 27.5234375 C3.41418945 26.27046875 3.41418945 26.27046875 2.11914062 24.9921875 C1.23419922 24.12851563 0.34925781 23.26484375 -0.5625 22.375 C-2.31597382 20.65585815 -4.06738575 18.93460987 -5.81640625 17.2109375 C-6.59443604 16.45087402 -7.37246582 15.69081055 -8.17407227 14.90771484 C-10.68323882 12.28615749 -10.97073683 11.31604221 -11.3125 7.625 C-11 4 -11 4 -9.4375 1.5625 C-5.90550465 -0.70159958 -4.13858566 -0.7587407 0 0 Z " fill="#000000" transform="translate(397,126)"/>
<path d="M0 0 C2.4375 1.5625 2.4375 1.5625 4 4 C4.71916495 7.39968883 4.82091972 9.66447388 2.953125 12.703125 C1.07590245 14.92869812 -0.93053449 16.94952041 -3 19 C-4.26890327 20.2805824 -5.53706566 21.56189913 -6.8046875 22.84375 C-10.51577583 26.58353117 -14.25112879 30.29812525 -18 34 C-16.49287699 37.55038072 -14.42833908 39.79113387 -11.68359375 42.4765625 C-10.83732422 43.311875 -9.99105469 44.1471875 -9.11914062 45.0078125 C-7.79172852 46.30332031 -7.79172852 46.30332031 -6.4375 47.625 C-4.68402618 49.34414185 -2.93261425 51.06539013 -1.18359375 52.7890625 C-0.01654907 53.92915771 -0.01654907 53.92915771 1.17407227 55.09228516 C3.68323882 57.71384251 3.97073683 58.68395779 4.3125 62.375 C4 66 4 66 2.5 68.4375 C-0.97505944 70.60941215 -4.06589735 70.82880191 -8 70 C-10.92726295 68.21880842 -13.18461562 65.91491229 -15.5625 63.46484375 C-16.57763672 62.45763023 -16.57763672 62.45763023 -17.61328125 61.43006897 C-19.03468053 60.00972874 -20.44615931 58.57939934 -21.84814453 57.13989258 C-23.99522546 54.94238667 -26.1794898 52.78776942 -28.37109375 50.63476562 C-29.74980142 49.24717773 -31.12618647 47.85727738 -32.5 46.46484375 C-33.47948608 45.50190651 -33.47948608 45.50190651 -34.47875977 44.51951599 C-37.53780014 41.33040011 -38.88581698 39.73691632 -39.57885742 35.26416016 C-38.98505205 31.91570897 -38.57180173 30.68711611 -36.23828125 28.30859375 C-35.59842285 27.64069824 -34.95856445 26.97280273 -34.29931641 26.28466797 C-33.54054199 25.53072754 -32.78176758 24.77678711 -32 24 C-31.10845215 23.08492676 -30.2169043 22.16985352 -29.29833984 21.22705078 C-26.80400025 18.6725383 -24.28488165 16.14416065 -21.75512695 13.62475586 C-20.16954204 12.04460356 -18.58946558 10.45908024 -17.00976562 8.87304688 C-16.00032108 7.86426194 -14.99056701 6.85578662 -13.98046875 5.84765625 C-12.61764771 4.4865271 -12.61764771 4.4865271 -11.22729492 3.09790039 C-7.53993526 -0.37524239 -5.02793521 -0.43344269 0 0 Z " fill="#000000" transform="translate(122,126)"/>
<path d="M0 0 C2.59191186 1.69814915 2.96408796 2.8820033 3.875 5.875 C4.02405268 9.60131711 3.25133987 11.08159647 1 14 C-2.09173752 15.54586876 -4.59429552 15.29359521 -8 15 C-10.4375 13.5 -10.4375 13.5 -12 11 C-12.63282293 7.4259887 -12.7960262 4.1750863 -10.6875 1.0625 C-6.89137087 -1.32765538 -4.22097926 -1.05524482 0 0 Z " fill="#000000" transform="translate(148,32)"/>
<path d="M0 0 C3.5 0.8125 3.5 0.8125 5.4375 1.875 C7.19366901 5.07742585 7.12026592 8.30940726 6.5 11.8125 C4.9375 14.3125 4.9375 14.3125 2.5 15.8125 C-1.15973254 16.26996657 -3.52604821 16.27384558 -6.875 14.6875 C-9.14943318 12.06315402 -9.43096951 10.26402438 -9.5 6.8125 C-7.36999687 2.12649312 -5.40760772 -0.28969327 0 0 Z " fill="#000000" transform="translate(76.5,31.1875)"/>
<path d="M0 0 C2.29047075 1.579635 2.89075219 2.71127363 3.875 5.3125 C4.0431427 8.92756814 2.86997685 10.95263032 1 14 C-2.09173752 15.54586876 -4.59429552 15.29359521 -8 15 C-10.4375 13.5 -10.4375 13.5 -12 11 C-12.63282293 7.4259887 -12.7960262 4.1750863 -10.6875 1.0625 C-6.89137087 -1.32765538 -4.22097926 -1.05524482 0 0 Z " fill="#000000" transform="translate(114,32)"/>
</svg>
