<?xml version="1.0" encoding="UTF-8"?>
<svg version="1.1" xmlns="http://www.w3.org/2000/svg" width="512" height="512">
<path d="M0 0 C2.36798533 -0.00542549 4.73596727 -0.01255054 7.10394287 -0.02124023 C13.51300129 -0.03942543 19.9218012 -0.03242572 26.33086395 -0.01972389 C30.33868378 -0.01259401 34.3464861 -0.01396087 38.35430908 -0.01768494 C39.3547657 -0.01860433 39.3547657 -0.01860433 40.37543356 -0.01954231 C41.73070766 -0.02082131 43.08598174 -0.02211817 44.44125581 -0.02343267 C57.12608283 -0.03481725 69.8107939 -0.0217582 82.49560189 -0.00023121 C93.36105824 0.01763788 104.22634361 0.01453318 115.09179688 -0.00390625 C127.7336807 -0.0253506 140.37546311 -0.03371882 153.01736259 -0.0214572 C154.36743035 -0.02018311 155.71749813 -0.01892562 157.06756592 -0.01768494 C158.0637489 -0.01675928 158.0637489 -0.01675928 159.08005679 -0.01581493 C163.74231267 -0.01237268 168.40446837 -0.01836326 173.06671143 -0.02760315 C179.35087004 -0.03918829 185.63470689 -0.03108679 191.91883087 -0.00802612 C194.22017127 -0.00275333 196.52153892 -0.0042282 198.82286835 -0.01307678 C214.35669994 -0.06728123 226.88977196 0.23272255 238.7109375 11.51757812 C248.11340422 21.36689475 250.33240982 31.75400039 250.1015625 45.06054688 C250.09590271 46.31015701 250.09024292 47.55976715 250.08441162 48.84724426 C250.06595964 52.13050192 250.03018021 55.41293658 249.9855957 58.69592285 C249.9442902 62.06150368 249.92632626 65.42720619 249.90625 68.79296875 C249.86237913 75.36815369 249.79561542 81.94279878 249.7109375 88.51757812 C250.53819336 88.49663086 251.36544922 88.47568359 252.21777344 88.45410156 C255.9653712 88.37096193 259.71277499 88.31892282 263.4609375 88.26757812 C264.76289063 88.2340625 266.06484375 88.20054688 267.40625 88.16601562 C268.65664063 88.153125 269.90703125 88.14023438 271.1953125 88.12695312 C272.34741211 88.10600586 273.49951172 88.08505859 274.68652344 88.06347656 C277.7109375 88.51757812 277.7109375 88.51757812 279.86821747 89.91015625 C282.72922666 93.95844239 282.26289345 97.84716371 282.21887207 102.69042969 C282.22823201 104.25940695 282.22823201 104.25940695 282.23778105 105.86008072 C282.25377702 109.37634863 282.2410805 112.89192967 282.22851562 116.40820312 C282.23393378 118.9244426 282.24105471 121.44067891 282.24975586 123.95690918 C282.26612937 130.08862415 282.26369493 136.22008342 282.2521053 142.35180187 C282.24307677 147.33452652 282.24184444 152.31719628 282.24620056 157.29992676 C282.24681349 158.00872238 282.24742643 158.71751801 282.24805793 159.44779229 C282.24933682 160.88763525 282.25063367 162.32747819 282.2519483 163.76732111 C282.26335824 177.27311197 282.25023393 190.77879429 282.22874683 204.28456736 C282.21087544 215.8766149 282.21397943 227.46850222 282.23242188 239.06054688 C282.25382132 252.51754775 282.26225957 265.97445345 282.24997282 279.43146896 C282.24869861 280.86605579 282.24744112 282.30064263 282.24620056 283.73522949 C282.24527491 284.79403364 282.24527491 284.79403364 282.24433056 285.87422776 C282.24087486 290.85176262 282.2467107 295.82923718 282.25611877 300.8067627 C282.26849976 307.50448023 282.25970248 314.20184789 282.23654175 320.89955139 C282.23123973 323.36185705 282.23279376 325.82418812 282.24159241 328.28648376 C282.25247207 331.63957945 282.23887504 334.99169394 282.21887207 338.34472656 C282.2322564 339.81728094 282.2322564 339.81728094 282.24591112 341.31958389 C282.16977838 347.868325 282.16977838 347.868325 279.86821747 351.125 C276.87353137 353.05814471 274.7410711 352.97267146 271.1953125 352.90820312 C269.94492187 352.8953125 268.69453125 352.88242187 267.40625 352.86914062 C265.45332031 352.81886719 265.45332031 352.81886719 263.4609375 352.76757812 C262.14351563 352.74953125 260.82609375 352.73148437 259.46875 352.71289062 C256.21541442 352.66574083 252.96354125 352.59993856 249.7109375 352.51757812 C249.71462467 353.08981015 249.71831184 353.66204218 249.72211075 354.25161457 C249.81069739 368.21693767 249.87650524 382.18221111 249.91818619 396.14775562 C249.93875488 402.90158533 249.96676536 409.65522675 250.01269531 416.40893555 C250.05703354 422.93173699 250.08010373 429.45441664 250.09044647 435.97736168 C250.0978133 438.46074176 250.11219881 440.94411166 250.13385773 443.42740822 C250.16307213 446.91708742 250.16688585 450.40596932 250.16503906 453.89575195 C250.17942017 454.91283737 250.19380127 455.92992279 250.20861816 456.97782898 C250.14466648 468.21189102 246.47787656 477.3815172 238.7109375 485.51757812 C225.98335939 497.66772358 212.00940722 497.09893513 195.421875 497.03515625 C193.05388967 497.04058174 190.68590773 497.04770679 188.31793213 497.05639648 C181.90887371 497.07458168 175.5000738 497.06758197 169.09101105 497.05488014 C165.08319122 497.04775026 161.0753889 497.04911712 157.06756592 497.05284119 C156.0671093 497.05376058 156.0671093 497.05376058 155.04644144 497.05469856 C153.69116734 497.05597756 152.33589326 497.05727442 150.98061919 497.05858892 C138.29579217 497.0699735 125.6110811 497.05691445 112.92627311 497.03538746 C102.06081676 497.01751837 91.19553139 497.02062307 80.33007812 497.0390625 C67.6881943 497.06050685 55.04641189 497.06887507 42.40451241 497.05661345 C41.05444465 497.05533936 39.70437687 497.05408187 38.35430908 497.05284119 C37.3581261 497.05191553 37.3581261 497.05191553 36.34181821 497.05097118 C31.67956233 497.04752893 27.01740663 497.05351951 22.35516357 497.0627594 C16.07100496 497.07434454 9.78716811 497.06624304 3.50304413 497.04318237 C1.20170373 497.03790958 -1.09966392 497.03938445 -3.40099335 497.04823303 C-18.93482494 497.10243748 -31.46789696 496.8024337 -43.2890625 485.51757812 C-52.04027815 476.35046312 -54.91945807 466.3639236 -54.74316406 453.89575195 C-54.74374817 452.79199219 -54.74433228 451.68823242 -54.74493408 450.55102539 C-54.74217138 446.94188797 -54.71116455 443.33360058 -54.6796875 439.72460938 C-54.67221868 437.20684765 -54.66652878 434.68908007 -54.66253662 432.17131042 C-54.6488809 426.24645046 -54.61743093 420.32185831 -54.57713866 414.39713544 C-54.52781218 406.98095638 -54.50650936 399.56473893 -54.484375 392.1484375 C-54.44159359 378.93799939 -54.3741825 365.72780785 -54.2890625 352.51757812 C-55.11631836 352.53852539 -55.94357422 352.55947266 -56.79589844 352.58105469 C-60.5434962 352.66419432 -64.29089999 352.71623343 -68.0390625 352.76757812 C-69.99199219 352.81785156 -69.99199219 352.81785156 -71.984375 352.86914062 C-73.23476562 352.88203125 -74.48515625 352.89492188 -75.7734375 352.90820312 C-76.92553711 352.92915039 -78.07763672 352.95009766 -79.26464844 352.97167969 C-82.2890625 352.51757812 -82.2890625 352.51757812 -84.44634247 351.125 C-87.30735166 347.07671386 -86.84101845 343.18799254 -86.79699707 338.34472656 C-86.80323703 337.29874172 -86.809477 336.25275688 -86.81590605 335.17507553 C-86.83190202 331.65880762 -86.8192055 328.14322658 -86.80664062 324.62695312 C-86.81205878 322.11071365 -86.81917971 319.59447734 -86.82788086 317.07824707 C-86.84425437 310.9465321 -86.84181993 304.81507283 -86.8302303 298.68335438 C-86.82120177 293.70062973 -86.81996944 288.71795997 -86.82432556 283.73522949 C-86.82493849 283.02643387 -86.82555143 282.31763824 -86.82618293 281.58736396 C-86.82746182 280.147521 -86.82875867 278.70767806 -86.8300733 277.26783514 C-86.84148324 263.76204428 -86.82835893 250.25636196 -86.80687183 236.75058889 C-86.78900044 225.15854135 -86.79210443 213.56665403 -86.81054688 201.97460938 C-86.83194632 188.5176085 -86.84038457 175.0607028 -86.82809782 161.60368729 C-86.82682361 160.16910046 -86.82556612 158.73451362 -86.82432556 157.29992676 C-86.82370846 156.59405733 -86.82309136 155.8881879 -86.82245556 155.16092849 C-86.81899986 150.18339363 -86.8248357 145.20591907 -86.83424377 140.22839355 C-86.84662476 133.53067602 -86.83782748 126.83330836 -86.81466675 120.13560486 C-86.80936473 117.6732992 -86.81091876 115.21096813 -86.81971741 112.74867249 C-86.83059707 109.3955768 -86.81700004 106.04346231 -86.79699707 102.69042969 C-86.80591996 101.70872677 -86.81484284 100.72702385 -86.82403612 99.71557236 C-86.74790338 93.16683125 -86.74790338 93.16683125 -84.44634247 89.91015625 C-81.45165637 87.97701154 -79.3191961 88.06248479 -75.7734375 88.12695312 C-74.52304688 88.13984375 -73.27265625 88.15273437 -71.984375 88.16601562 C-70.68242188 88.19953125 -69.38046875 88.23304687 -68.0390625 88.26757812 C-66.72164062 88.285625 -65.40421875 88.30367188 -64.046875 88.32226562 C-60.79353942 88.36941542 -57.54166625 88.43521769 -54.2890625 88.51757812 C-54.29794495 87.82790451 -54.30682739 87.1382309 -54.315979 86.42765808 C-54.39660461 79.88248081 -54.45726789 73.33744501 -54.49631119 66.79188061 C-54.51705971 63.42784887 -54.54513841 60.06423233 -54.59082031 56.70043945 C-54.63968954 52.82036656 -54.66211255 48.94087287 -54.6796875 45.06054688 C-54.70033264 43.87051559 -54.72097778 42.68048431 -54.74224854 41.45439148 C-54.74540229 29.55071455 -51.57202217 20.1941834 -43.2890625 11.51757812 C-30.56148439 -0.63256733 -16.58753222 -0.06377888 0 0 Z M-32.5390625 25.95507812 C-45.36417833 41.69347091 -38.2890625 75.63608661 -38.2890625 88.51757812 C51.4709375 88.51757812 141.2309375 88.51757812 233.7109375 88.51757812 C237.09968117 58.56067462 237.09968117 58.56067462 227.7109375 25.51757812 C219.59358808 17.45820977 211.64315473 16.36359901 200.54606628 16.38386536 C199.17582801 16.38046702 199.17582801 16.38046702 197.77790815 16.37700003 C194.72196166 16.37067824 191.66605972 16.37148823 188.61010742 16.37231445 C186.416956 16.36932183 184.22380511 16.36591906 182.03065491 16.36213684 C176.07604754 16.35330316 170.12145455 16.35095899 164.16684127 16.35032105 C160.4456764 16.34961019 156.72451518 16.34747518 153.00335121 16.34482384 C140.68878315 16.33604989 128.37422277 16.33140386 116.0596517 16.33215431 C115.39632162 16.33219427 114.73299154 16.33223422 114.04956055 16.33227539 C113.05334469 16.33233671 113.05334469 16.33233671 112.03700326 16.33239927 C101.2766832 16.33280561 90.51639815 16.32323807 79.75608822 16.30913702 C68.69642063 16.29475853 57.63677094 16.28805062 46.5770939 16.2887308 C40.37238104 16.28898565 34.16770781 16.28614176 27.96300316 16.27555275 C22.12633377 16.26586376 16.28974183 16.26579814 10.45306969 16.27306938 C8.31375516 16.27411422 6.17443578 16.27175832 4.03512955 16.26570892 C1.10891561 16.25797184 -1.817032 16.26264524 -4.74324036 16.27033997 C-5.58450448 16.2651964 -6.42576861 16.26005284 -7.29252559 16.25475341 C-17.5392979 16.3140647 -25.45178851 18.09930455 -32.5390625 25.95507812 Z M-70.2890625 104.51757812 C-70.2890625 120.35757813 -70.2890625 136.19757813 -70.2890625 152.51757812 C40.5909375 152.51757812 151.4709375 152.51757812 265.7109375 152.51757812 C265.7109375 136.67757812 265.7109375 120.83757812 265.7109375 104.51757812 C154.8309375 104.51757812 43.9509375 104.51757812 -70.2890625 104.51757812 Z M-70.2890625 168.51757812 C-70.2890625 223.95757812 -70.2890625 279.39757812 -70.2890625 336.51757812 C40.5909375 336.51757812 151.4709375 336.51757812 265.7109375 336.51757812 C265.7109375 281.07757813 265.7109375 225.63757813 265.7109375 168.51757812 C154.8309375 168.51757812 43.9509375 168.51757812 -70.2890625 168.51757812 Z M-38.2890625 352.51757812 C-38.2890625 368.35757812 -38.2890625 384.19757813 -38.2890625 400.51757812 C51.4709375 400.51757812 141.2309375 400.51757812 233.7109375 400.51757812 C233.7109375 384.67757812 233.7109375 368.83757812 233.7109375 352.51757812 C143.9509375 352.51757812 54.1909375 352.51757812 -38.2890625 352.51757812 Z M-38.2890625 416.51757812 C-41.0711704 443.85986982 -41.0711704 443.85986982 -32.2890625 471.51757812 C-24.17171308 479.57694648 -16.22127973 480.67155724 -5.12419128 480.65129089 C-3.75395301 480.65468923 -3.75395301 480.65468923 -2.35603315 480.65815622 C0.69991334 480.66447801 3.75581528 480.66366802 6.81176758 480.6628418 C9.004919 480.66583442 11.19806989 480.66923719 13.39122009 480.67301941 C19.34582746 480.68185309 25.30042045 480.68419726 31.25503373 480.6848352 C34.9761986 480.68554606 38.69735982 480.68768107 42.41852379 480.69033241 C54.73309185 480.69910636 67.04765223 480.70375239 79.3622233 480.70300194 C80.02555338 480.70296198 80.68888346 480.70292203 81.37231445 480.70288086 C82.03645836 480.70283998 82.70060226 480.7027991 83.38487174 480.70275698 C94.1451918 480.70235064 104.90547685 480.71191818 115.66578678 480.72601923 C126.72545437 480.74039772 137.78510406 480.74710563 148.8447811 480.74642545 C155.04949396 480.7461706 161.25416719 480.74901449 167.45887184 480.7596035 C173.29554123 480.76929249 179.13213317 480.76935811 184.96880531 480.76208687 C187.10811984 480.76104203 189.24743922 480.76339793 191.38674545 480.76944733 C194.31295939 480.77718441 197.238907 480.77251101 200.16511536 480.76481628 C201.42701155 480.77253163 201.42701155 480.77253163 202.71440059 480.78040284 C211.77342298 480.72796659 219.7093762 479.55512189 226.33984375 472.87695312 C239.88900049 457.85861072 233.7109375 435.00865558 233.7109375 416.51757812 C143.9509375 416.51757812 54.1909375 416.51757812 -38.2890625 416.51757812 Z " fill="#000000" transform="translate(158.2890625,7.482421875)"/>
<path d="M0 0 C2.5 1.5 2.5 1.5 4 4 C4.72569376 11.12934312 2.67807751 16.16677077 -0.1875 22.625 C-0.63329407 23.661371 -1.07908813 24.697742 -1.53839111 25.76551819 C-3.01209972 29.18303032 -4.50590583 32.59135694 -6 36 C-7.03232151 38.38277739 -8.06322401 40.76617002 -9.09277344 43.15014648 C-10.70713193 46.88641794 -12.32338144 50.62183528 -13.94696045 54.35411072 C-17.64224448 62.84896082 -21.30016146 71.35896589 -24.92893982 79.88243484 C-25.75914121 81.83242701 -26.58997204 83.78214972 -27.42102051 85.73178101 C-27.69154488 86.36644979 -27.96206924 87.00111858 -28.24079132 87.65501976 C-28.50937706 88.28513277 -28.7779628 88.91524578 -29.0546875 89.56445312 C-30.64641489 93.29884966 -32.23772124 97.03342264 -33.82714844 100.76879883 C-35.30303513 104.23413774 -36.78370213 107.6973952 -38.265625 111.16015625 C-38.70215393 112.18794693 -39.13868286 113.21573761 -39.58843994 114.27467346 C-39.99528015 115.22309616 -40.40212036 116.17151886 -40.82128906 117.14868164 C-41.17161194 117.96953751 -41.52193481 118.79039337 -41.88287354 119.63612366 C-45.1657975 126.58289875 -45.1657975 126.58289875 -48 128 C-55.0521327 128.56872038 -55.0521327 128.56872038 -58.5 126.5 C-60.59747993 123.00420012 -60.5165934 119.93462419 -60 116 C-58.88602203 112.33121029 -57.36623774 108.8767006 -55.8125 105.375 C-55.36670593 104.338629 -54.92091187 103.302258 -54.46160889 102.23448181 C-52.98790028 98.81696968 -51.49409417 95.40864306 -50 92 C-48.96767849 89.61722261 -47.93677599 87.23382998 -46.90722656 84.84985352 C-45.29286807 81.11358206 -43.67661856 77.37816472 -42.05303955 73.64588928 C-38.35775552 65.15103918 -34.69983854 56.64103411 -31.07106018 48.11756516 C-30.24085879 46.16757299 -29.41002796 44.21785028 -28.57897949 42.26821899 C-28.30845512 41.63355021 -28.03793076 40.99888142 -27.75920868 40.34498024 C-27.49062294 39.71486723 -27.2220372 39.08475422 -26.9453125 38.43554688 C-25.35358511 34.70115034 -23.76227876 30.96657736 -22.17285156 27.23120117 C-20.69696487 23.76586226 -19.21629787 20.3026048 -17.734375 16.83984375 C-17.29784607 15.81205307 -16.86131714 14.78426239 -16.41156006 13.72532654 C-16.00471985 12.77690384 -15.59787964 11.82848114 -15.17871094 10.85131836 C-14.82838806 10.03046249 -14.47806519 9.20960663 -14.11712646 8.36387634 C-10.72698001 1.19021494 -8.23701599 -1.12322945 0 0 Z " fill="#000000" transform="translate(284,192)"/>
<path d="M0 0 C2.61221689 0.70808011 3.87624729 1.77530725 5.86488342 3.60197449 C6.56018158 4.23807648 7.25547974 4.87417847 7.97184753 5.52955627 C11.53916002 8.92076637 15.05126951 12.36014812 18.52674866 15.84538269 C19.67150414 16.98870308 19.67150414 16.98870308 20.83938599 18.15512085 C22.43635279 19.75141212 24.03207744 21.34894697 25.62660217 22.94767761 C28.07590226 25.40237967 30.53055395 27.8516404 32.98573303 30.30046082 C34.54139271 31.85678051 36.09674257 33.41340996 37.65174866 34.97038269 C38.38707321 35.70368301 39.12239777 36.43698334 39.88000488 37.19250488 C40.55483414 37.8704863 41.22966339 38.54846771 41.92494202 39.24699402 C42.52036301 39.8432106 43.115784 40.43942719 43.72924805 41.05371094 C46.31558179 43.87544623 46.64691218 46.58432219 46.59405518 50.38064575 C46.00979375 53.11155873 44.99836104 54.28100906 43.11000061 56.32414246 C42.47220673 57.01831268 41.83441284 57.71248291 41.17729187 58.4276886 C37.77657292 61.98623722 34.34031326 65.50251158 30.85487366 68.97819519 C30.09266006 69.74136551 29.33044647 70.50453583 28.5451355 71.29083252 C26.94884423 72.88779933 25.35130938 74.48352397 23.75257874 76.07804871 C21.29787668 78.5273488 18.84861595 80.98200048 16.39979553 83.43717957 C14.84347584 84.99283924 13.28684639 86.5481891 11.72987366 88.10319519 C10.99657333 88.83851974 10.26327301 89.5738443 9.50775146 90.33145142 C8.82977005 91.00628067 8.15178864 91.68110992 7.45326233 92.37638855 C6.55893745 93.26952003 6.55893745 93.26952003 5.64654541 94.18069458 C2.71202306 96.8704062 0.02286342 96.92382061 -3.89903259 96.84538269 C-5.87559509 96.57585144 -5.87559509 96.57585144 -8.37559509 95.07585144 C-10.0747852 92.24386792 -10.63565972 89.9905932 -10.42930603 86.6783905 C-8.09534904 77.81594005 4.64953285 68.94394262 11.06190491 62.57585144 C12.33101864 61.31176294 13.59990079 60.04744188 14.86854553 58.78288269 C17.95116811 55.7111842 21.03690918 52.64265136 24.12440491 49.57585144 C22.79817248 46.63179807 21.36226836 44.5710325 19.06752014 42.30778503 C18.14162331 41.38695633 18.14162331 41.38695633 17.19702148 40.44752502 C16.53239395 39.79635712 15.86776642 39.14518921 15.18299866 38.47428894 C14.15868492 37.45777756 14.15868492 37.45777756 13.11367798 36.42073059 C10.93445013 34.25929852 8.74864852 32.10467736 6.56190491 29.95085144 C4.3724766 27.78902198 2.18451389 25.62575975 -0.00057983 23.45954895 C-1.3600407 22.11236514 -2.7221654 20.76786323 -4.0871582 19.42628479 C-4.7012706 18.81870331 -5.315383 18.21112183 -5.94810486 17.58512878 C-6.49056351 17.05092316 -7.03302216 16.51671753 -7.59191895 15.96632385 C-10.22493333 13.11425414 -10.22112925 10.35255906 -10.14512634 6.55241394 C-9.87559509 4.57585144 -9.87559509 4.57585144 -8.37559509 2.07585144 C-5.55506515 0.38353347 -3.29937507 -0.17330228 0 0 Z " fill="#000000" transform="translate(317.87559509277344,207.4241485595703)"/>
<path d="M0 0 C2.5 1.5 2.5 1.5 4 4 C4.70627571 7.85241295 5.09412766 10.34868662 2.89160156 13.67285156 C-3.48383034 20.67746413 -10.21851361 27.32741182 -16.9375 34 C-18.20661373 35.2640885 -19.47549589 36.52840956 -20.74414062 37.79296875 C-23.8267632 40.86466724 -26.91250428 43.93320008 -30 47 C-28.67376757 49.94405337 -27.23786345 52.00481894 -24.94311523 54.26806641 C-24.0172184 55.18889511 -24.0172184 55.18889511 -23.07261658 56.12832642 C-22.40798904 56.77949432 -21.74336151 57.43066223 -21.05859375 58.1015625 C-20.03428001 59.11807388 -20.03428001 59.11807388 -18.98927307 60.15512085 C-16.81004522 62.31655292 -14.62424361 64.47117408 -12.4375 66.625 C-10.2480717 68.78682946 -8.06010899 70.95009169 -5.87501526 73.11630249 C-4.51555439 74.4634863 -3.1534297 75.80798821 -1.78843689 77.14956665 C-1.17432449 77.75714813 -0.5602121 78.36472961 0.07250977 78.99072266 C0.61496841 79.52492828 1.15742706 80.05913391 1.71632385 80.60952759 C4.34933824 83.4615973 4.34553415 86.22329238 4.26953125 90.0234375 C4 92 4 92 2.5 94.5 C-0.32052995 96.19231797 -2.57622002 96.74915372 -5.87559509 96.57585144 C-8.48781199 95.86777133 -9.75184238 94.80054419 -11.74047852 92.97387695 C-12.43577667 92.33777496 -13.13107483 91.70167297 -13.84744263 91.04629517 C-17.41475511 87.65508507 -20.9268646 84.21570332 -24.40234375 80.73046875 C-25.16551407 79.96825516 -25.92868439 79.20604156 -26.71498108 78.42073059 C-28.31194789 76.82443932 -29.90767253 75.22690447 -31.50219727 73.62817383 C-33.95149736 71.17347177 -36.40614904 68.72421104 -38.86132812 66.27539062 C-40.4169878 64.71907093 -41.97233766 63.16244148 -43.52734375 61.60546875 C-44.2626683 60.87216843 -44.99799286 60.1388681 -45.75559998 59.38334656 C-46.43042923 58.70536514 -47.10525848 58.02738373 -47.80053711 57.32885742 C-48.3959581 56.73264084 -48.99137909 56.13642426 -49.60484314 55.5221405 C-52.19117688 52.70040521 -52.52250727 49.99152925 -52.46965027 46.19520569 C-51.88538884 43.46429271 -50.87395614 42.29484238 -48.9855957 40.25170898 C-48.34780182 39.55753876 -47.71000793 38.86336853 -47.05288696 38.14816284 C-43.65216801 34.58961422 -40.21590836 31.07333986 -36.73046875 27.59765625 C-35.58714836 26.45290077 -35.58714836 26.45290077 -34.42073059 25.28501892 C-32.82443932 23.68805211 -31.22690447 22.09232747 -29.62817383 20.49780273 C-27.17347177 18.04850264 -24.72421104 15.59385096 -22.27539062 13.13867188 C-20.71907093 11.5830122 -19.16244148 10.02766234 -17.60546875 8.47265625 C-16.87216843 7.7373317 -16.1388681 7.00200714 -15.38334656 6.24440002 C-14.70536514 5.56957077 -14.02738373 4.89474152 -13.32885742 4.19946289 C-12.73264084 3.6040419 -12.13642426 3.00862091 -11.5221405 2.39515686 C-8.16609856 -0.68090933 -4.33161121 -0.59067426 0 0 Z " fill="#000000" transform="translate(200,208)"/>
<path d="M0 0 C5.82485779 3.51996782 10.54466582 8.98962934 12.5625 15.5 C13.36764105 23.33608208 13.68710392 31.11922577 8.5625 37.5 C3.75801361 42.54521222 -0.59927055 46.10562995 -7.70703125 46.8359375 C-16.22326573 46.92983204 -22.11345494 46.6177288 -28.40234375 40.62890625 C-34.7841668 33.72505269 -35.91792252 28.29832071 -35.7421875 18.9453125 C-35.04689797 11.08319245 -31.38995981 6.95041296 -25.53515625 1.9453125 C-18.47077988 -2.92213491 -7.84396301 -3.47595223 0 0 Z M-16.8125 17.125 C-18.92456506 20.21186432 -19.04945145 21.8282913 -18.4375 25.5 C-16.9375 28 -16.9375 28 -14.4375 29.5 C-10.7657913 30.11195145 -9.14936432 29.98706506 -6.0625 27.875 C-3.95043494 24.78813568 -3.82554855 23.1717087 -4.4375 19.5 C-5.9375 17 -5.9375 17 -8.4375 15.5 C-12.1092087 14.88804855 -13.72563568 15.01293494 -16.8125 17.125 Z " fill="#000000" transform="translate(267.4375,433.5)"/>
<path d="M0 0 C0.69641602 -0.00700928 1.39283203 -0.01401855 2.11035156 -0.02124023 C4.40730932 -0.03881383 6.70303021 -0.02720107 9 -0.01367188 C10.59896073 -0.01636701 12.19791987 -0.0202496 13.796875 -0.02526855 C17.14599226 -0.03116269 20.49468243 -0.0226038 23.84375 -0.00390625 C28.13478591 0.01888377 32.42482111 0.00576017 36.71582031 -0.01819611 C40.01700366 -0.03265667 43.31795011 -0.02804703 46.61914062 -0.01768494 C48.20117308 -0.01501834 49.78322711 -0.0182851 51.36523438 -0.02760315 C53.57740163 -0.03777366 55.787953 -0.02226378 58 0 C59.8871875 0.00477356 59.8871875 0.00477356 61.8125 0.00964355 C65.55520109 0.60605054 66.73159929 1.54273163 69 4.51757812 C69.53125 6.51757812 69.53125 6.51757812 69.5 8.51757812 C69.51546875 9.50757813 69.51546875 9.50757813 69.53125 10.51757812 C68.74176632 13.48975197 67.39936627 14.61414098 65 16.51757812 C61.8125 17.0255127 61.8125 17.0255127 58 17.03515625 C57.30358398 17.04216553 56.60716797 17.0491748 55.88964844 17.05639648 C53.59269068 17.07397008 51.29696979 17.06235732 49 17.04882812 C47.40103927 17.05152326 45.80208013 17.05540585 44.203125 17.0604248 C40.85400774 17.06631894 37.50531757 17.05776005 34.15625 17.0390625 C29.86521409 17.01627248 25.57517889 17.02939608 21.28417969 17.05335236 C17.98299634 17.06781292 14.68204989 17.06320328 11.38085938 17.05284119 C9.79882692 17.05017459 8.21677289 17.05344135 6.63476562 17.0627594 C4.42259837 17.07292991 2.212047 17.05742003 0 17.03515625 C-1.258125 17.03197388 -2.51625 17.0287915 -3.8125 17.0255127 C-7.55520109 16.42910571 -8.73159929 15.49242462 -11 12.51757812 C-11.53125 10.51757812 -11.53125 10.51757812 -11.5 8.51757812 C-11.51546875 7.52757812 -11.51546875 7.52757812 -11.53125 6.51757812 C-9.93997703 0.52690342 -5.4948528 0.01389899 0 0 Z " fill="#000000" transform="translate(227,39.482421875)"/>
<path d="M0 0 C0.87269531 -0.0038269 1.74539063 -0.00765381 2.64453125 -0.01159668 C4.48699092 -0.0143149 6.32948924 -0.00695994 8.171875 0.00976562 C10.99045934 0.03117752 13.80649485 0.00996199 16.625 -0.015625 C18.41667229 -0.01298171 20.20834299 -0.00785669 22 0 C22.84175781 -0.00809692 23.68351562 -0.01619385 24.55078125 -0.02453613 C30.38715618 0.06889601 30.38715618 0.06889601 33.52929688 2.43945312 C35.12144695 4.7039853 35.542797 5.7922417 35.5 8.53125 C35.5103125 9.19125 35.520625 9.85125 35.53125 10.53125 C34.72011424 13.58493756 33.53019712 14.62236769 31 16.53125 C28.00263779 17.13239553 25.04890723 17.09182764 22 17.0625 C21.12730469 17.0663269 20.25460937 17.07015381 19.35546875 17.07409668 C17.51300908 17.0768149 15.67051076 17.06945994 13.828125 17.05273438 C11.00954066 17.03132248 8.19350515 17.05253801 5.375 17.078125 C3.58332771 17.07548171 1.79165701 17.07035669 0 17.0625 C-0.84175781 17.07059692 -1.68351562 17.07869385 -2.55078125 17.08703613 C-8.38715618 16.99360399 -8.38715618 16.99360399 -11.52929688 14.62304688 C-13.12144695 12.3585147 -13.542797 11.2702583 -13.5 8.53125 C-13.51546875 7.54125 -13.51546875 7.54125 -13.53125 6.53125 C-11.69061453 -0.39820116 -5.94975317 -0.05723107 0 0 Z " fill="#000000" transform="translate(325,447.46875)"/>
<path d="M0 0 C0.87269531 -0.0038269 1.74539062 -0.00765381 2.64453125 -0.01159668 C4.48699092 -0.0143149 6.32948924 -0.00695994 8.171875 0.00976562 C10.99045934 0.03117752 13.80649485 0.00996199 16.625 -0.015625 C18.41667229 -0.01298171 20.20834299 -0.00785669 22 0 C22.84175781 -0.00809692 23.68351562 -0.01619385 24.55078125 -0.02453613 C30.38715618 0.06889601 30.38715618 0.06889601 33.52929688 2.43945312 C35.12144695 4.7039853 35.542797 5.7922417 35.5 8.53125 C35.5103125 9.19125 35.520625 9.85125 35.53125 10.53125 C34.72011424 13.58493756 33.53019712 14.62236769 31 16.53125 C28.00263779 17.13239553 25.04890723 17.09182764 22 17.0625 C21.12730469 17.0663269 20.25460938 17.07015381 19.35546875 17.07409668 C17.51300908 17.0768149 15.67051076 17.06945994 13.828125 17.05273438 C11.00954066 17.03132248 8.19350515 17.05253801 5.375 17.078125 C3.58332771 17.07548171 1.79165701 17.07035669 0 17.0625 C-0.84175781 17.07059692 -1.68351563 17.07869385 -2.55078125 17.08703613 C-8.38715618 16.99360399 -8.38715618 16.99360399 -11.52929688 14.62304688 C-13.12144695 12.3585147 -13.542797 11.2702583 -13.5 8.53125 C-13.51546875 7.54125 -13.51546875 7.54125 -13.53125 6.53125 C-11.69061453 -0.39820116 -5.94975317 -0.05723107 0 0 Z " fill="#000000" transform="translate(165,447.46875)"/>
<path d="M0 0 C2.5 1.5 2.5 1.5 4 4 C4.791013 8.02098277 4.62153384 10.96411027 2.5 14.5 C-1.03588973 16.62153384 -3.97901723 16.791013 -8 16 C-10.5 14.5 -10.5 14.5 -12 12 C-12.791013 7.97901723 -12.62153384 5.03588973 -10.5 1.5 C-6.96411027 -0.62153384 -4.02098277 -0.791013 0 0 Z " fill="#000000" transform="translate(404,128)"/>
<path d="M0 0 C2.5 1.5 2.5 1.5 4 4 C4.791013 8.02098277 4.62153384 10.96411027 2.5 14.5 C-1.03588973 16.62153384 -3.97901723 16.791013 -8 16 C-10.5 14.5 -10.5 14.5 -12 12 C-12.791013 7.97901723 -12.62153384 5.03588973 -10.5 1.5 C-6.96411027 -0.62153384 -4.02098277 -0.791013 0 0 Z " fill="#000000" transform="translate(372,128)"/>
<path d="M0 0 C2.5 1.5 2.5 1.5 4 4 C4.791013 8.02098277 4.62153384 10.96411027 2.5 14.5 C-1.03588973 16.62153384 -3.97901723 16.791013 -8 16 C-10.5 14.5 -10.5 14.5 -12 12 C-12.791013 7.97901723 -12.62153384 5.03588973 -10.5 1.5 C-6.96411027 -0.62153384 -4.02098277 -0.791013 0 0 Z " fill="#000000" transform="translate(340,128)"/>
<path d="M0 0 C2.5 1.5 2.5 1.5 4 4 C4.791013 8.02098277 4.62153384 10.96411027 2.5 14.5 C-1.03588973 16.62153384 -3.97901723 16.791013 -8 16 C-10.5 14.5 -10.5 14.5 -12 12 C-12.791013 7.97901723 -12.62153384 5.03588973 -10.5 1.5 C-6.96411027 -0.62153384 -4.02098277 -0.791013 0 0 Z " fill="#000000" transform="translate(324,40)"/>
</svg>
